<svg width="123" height="123" viewBox="0 0 123 123" fill="none" xmlns="http://www.w3.org/2000/svg">
<circle cx="61.5" cy="61.5" r="61" stroke="#EFEFEF"/>
<path d="M71.1209 99.8079L71.7412 101.174L71.7412 101.174L71.1209 99.8079ZM62.2563 103.834L62.8766 105.2L62.8766 105.2L62.2563 103.834ZM60.7437 103.834L60.1233 105.2L60.1233 105.2L60.7437 103.834ZM51.8791 99.8079L51.2587 101.174L51.2587 101.174L51.8791 99.8079ZM57.9481 87.4183C57.1197 87.4183 56.4481 88.0899 56.4481 88.9183C56.4481 89.7467 57.1197 90.4183 57.9481 90.4183V87.4183ZM55.3283 93.7107C56.1567 93.7107 56.8283 93.0392 56.8283 92.2107C56.8283 91.3823 56.1567 90.7107 55.3283 90.7107V93.7107ZM61.6596 94.0003C60.8311 94.0003 60.1596 94.6718 60.1596 95.5003C60.1596 96.3287 60.8311 97.0003 61.6596 97.0003V94.0003ZM62.78 44.5317C63.6084 44.5317 64.28 43.8601 64.28 43.0317C64.28 42.2033 63.6084 41.5317 62.78 41.5317V44.5317ZM61.5111 82.5995C61.5111 83.4279 62.1827 84.0995 63.0111 84.0995C63.8395 84.0995 64.5111 83.4279 64.5111 82.5995H61.5111ZM63.0111 65.0619L63.0185 66.5619L63.0111 65.0619ZM63.0111 60.4712L63.0185 58.9713L63.0111 60.4712ZM63.0111 56.3421L63.0218 57.8421L63.0111 56.3421ZM63.0111 73.7819H64.5111C64.5111 72.9535 63.8395 72.2819 63.0111 72.2819V73.7819ZM40.5 48.6111C40.5 36.9448 49.909 27.5 61.5 27.5V24.5C48.2382 24.5 37.5 35.3019 37.5 48.6111H40.5ZM61.5 27.5C73.091 27.5 82.5 36.9448 82.5 48.6111H85.5C85.5 35.3019 74.7618 24.5 61.5 24.5V27.5ZM48.6418 69.2172C48.6418 64.9336 46.3074 61.5024 44.3319 58.4358C42.2776 55.247 40.5 52.3217 40.5 48.6111H37.5C37.5 53.3132 39.7932 56.93 41.8099 60.0605C43.9053 63.3132 45.6418 65.9787 45.6418 69.2172H48.6418ZM82.5 48.6111C82.5 52.3272 80.7166 55.323 78.6642 58.543C76.699 61.6261 74.3582 65.0666 74.3582 69.2172H77.3582C77.3582 66.1153 79.0882 63.4591 81.194 60.1555C83.2125 56.9887 85.5 53.3078 85.5 48.6111H82.5ZM70.5006 98.4422L61.636 102.469L62.8766 105.2L71.7412 101.174L70.5006 98.4422ZM61.364 102.469L52.4994 98.4422L51.2587 101.174L60.1233 105.2L61.364 102.469ZM61.636 102.469C61.5438 102.51 61.4562 102.51 61.364 102.469L60.1233 105.2C61.0039 105.6 61.9961 105.6 62.8766 105.2L61.636 102.469ZM49.0548 97.5516C49.0548 99.036 49.8376 100.528 51.2587 101.174L52.4994 98.4422C52.3234 98.3622 52.0548 98.0629 52.0548 97.5516H49.0548ZM70.9452 97.5516C70.9452 98.0629 70.6766 98.3622 70.5006 98.4422L71.7412 101.174C73.1624 100.528 73.9452 99.036 73.9452 97.5516H70.9452ZM69.0453 81.9532H53.9547V84.9532H69.0453V81.9532ZM69.0453 84.9532C69.5121 84.9532 69.937 85.1211 70.2689 85.4035L72.2128 83.1185C71.36 82.393 70.2523 81.9532 69.0453 81.9532V84.9532ZM70.2689 85.4035C70.6837 85.7564 70.9452 86.2808 70.9452 86.8699H73.9452C73.9452 85.3671 73.2713 84.0191 72.2128 83.1185L70.2689 85.4035ZM74.3582 69.2172C74.3582 76.3459 72.5654 80.6884 70.1533 83.228L72.3284 85.294C75.4451 82.0127 77.3582 76.8164 77.3582 69.2172H74.3582ZM52.0548 86.8699C52.0548 86.2809 52.3162 85.7566 52.7309 85.4037L50.7866 83.119C49.7284 84.0195 49.0548 85.3674 49.0548 86.8699H52.0548ZM52.7309 85.4037C53.0628 85.1212 53.4878 84.9532 53.9547 84.9532V81.9532C52.7474 81.9532 51.6395 82.3932 50.7866 83.119L52.7309 85.4037ZM52.8464 83.2284C50.4344 80.6888 48.6418 76.3463 48.6418 69.2172H45.6418C45.6418 76.8166 47.5546 82.013 50.6711 85.2943L52.8464 83.2284ZM70.9452 86.8699V88.9183H73.9452V86.8699H70.9452ZM72.4452 87.4183H57.9481V90.4183H72.4452V87.4183ZM52.0548 97.5516V92.2107H49.0548V97.5516H52.0548ZM52.0548 92.2107V86.8699H49.0548V92.2107H52.0548ZM50.5548 93.7107H55.3283V90.7107H50.5548V93.7107ZM70.9452 88.9183V95.5003H73.9452V88.9183H70.9452ZM70.9452 95.5003V97.5516H73.9452V95.5003H70.9452ZM72.4452 94.0003H61.6596V97.0003H72.4452V94.0003ZM53.805 49.6873C53.805 48.5413 54.539 47.2882 56.1774 46.2471C57.7978 45.2176 60.1282 44.5317 62.78 44.5317V41.5317C59.6466 41.5317 56.7394 42.3357 54.5686 43.715C52.4158 45.0828 50.805 47.1576 50.805 49.6873H53.805ZM62.78 72.2819C60.1282 72.2819 57.7978 71.5961 56.1774 70.5665C54.539 69.5254 53.805 68.2724 53.805 67.1263H50.805C50.805 69.6561 52.4158 71.7308 54.5686 73.0986C56.7394 74.4779 59.6466 75.2819 62.78 75.2819V72.2819ZM62.78 53.2512C64.3123 53.2512 66.1699 53.366 67.6033 53.6785C68.3327 53.8375 68.8373 54.0241 69.1235 54.1981C69.419 54.3777 69.195 54.3496 69.195 54.0471H72.195C72.195 52.8296 71.3768 52.0571 70.682 51.6347C69.978 51.2066 69.0965 50.9336 68.2423 50.7474C66.5083 50.3693 64.4084 50.2512 62.78 50.2512V53.2512ZM53.805 58.4068C53.805 57.3642 54.4061 56.2423 55.7512 55.2573L53.9787 52.8369C52.1342 54.1876 50.805 56.1143 50.805 58.4068H53.805ZM55.7512 55.2573C57.3693 54.0724 59.8767 53.2512 62.78 53.2512V50.2512C59.3619 50.2512 56.2018 51.2089 53.9787 52.8369L55.7512 55.2573ZM62.78 54.843C59.8767 54.843 57.3693 54.0218 55.7512 52.8369L53.9787 55.2573C56.2018 56.8853 59.3619 57.843 62.78 57.843V54.843ZM55.7512 52.8369C54.4061 51.8519 53.805 50.7299 53.805 49.6873H50.805C50.805 51.9799 52.1342 53.9066 53.9787 55.2573L55.7512 52.8369ZM53.805 67.1263C53.805 66.0837 54.4061 64.9618 55.7512 63.9768L53.9787 61.5564C52.1342 62.9071 50.805 64.8338 50.805 67.1263H53.805ZM55.7512 63.9768C57.3693 62.7919 59.8767 61.9707 62.78 61.9707V58.9707C59.3619 58.9707 56.2018 59.9284 53.9787 61.5564L55.7512 63.9768ZM62.78 63.5625C59.8767 63.5625 57.3693 62.7413 55.7512 61.5564L53.9787 63.9768C56.2018 65.6047 59.3619 66.5625 62.78 66.5625V63.5625ZM55.7512 61.5564C54.4061 60.5713 53.805 59.4494 53.805 58.4068H50.805C50.805 60.6994 52.1342 62.6261 53.9787 63.9768L55.7512 61.5564ZM69.195 62.7666C69.195 62.5519 69.3571 62.5282 69.1273 62.676C68.8756 62.8377 68.415 63.016 67.7192 63.1666C66.3509 63.4628 64.5577 63.5542 63.0037 63.5619L63.0185 66.5619C64.6204 66.5539 66.6692 66.4634 68.3539 66.0987C69.1846 65.9189 70.0532 65.647 70.7492 65.1997C71.4669 64.7385 72.195 63.947 72.195 62.7666H69.195ZM63.0037 63.5619C62.9283 63.5623 62.8537 63.5625 62.78 63.5625V66.5625C62.8585 66.5625 62.9381 66.5623 63.0185 66.5619L63.0037 63.5619ZM62.78 61.9707C62.8537 61.9707 62.9283 61.9708 63.0037 61.9712L63.0185 58.9713C62.9381 58.9709 62.8585 58.9707 62.78 58.9707V61.9707ZM63.0037 61.9712C64.5577 61.9789 66.3509 62.0703 67.7192 62.3665C68.415 62.5171 68.8756 62.6954 69.1273 62.8572C69.3571 63.0049 69.195 62.9812 69.195 62.7666H72.195C72.195 61.5862 71.4669 60.7947 70.7492 60.3334C70.0532 59.8861 69.1846 59.6143 68.3539 59.4344C66.6692 59.0697 64.6204 58.9792 63.0185 58.9713L63.0037 61.9712ZM69.195 54.0471C69.195 53.753 69.409 53.7172 69.1413 53.8851C68.8769 54.0509 68.4025 54.2341 67.7034 54.3933C66.3297 54.7063 64.532 54.8313 63.0004 54.8422L63.0218 57.8421C64.6461 57.8306 66.6903 57.701 68.3697 57.3184C69.1971 57.1299 70.0519 56.8552 70.7351 56.4267C71.415 56.0004 72.195 55.234 72.195 54.0471H69.195ZM63.0004 54.8422C62.9261 54.8427 62.8526 54.843 62.78 54.843V57.843C62.8597 57.843 62.9403 57.8427 63.0218 57.8421L63.0004 54.8422ZM64.5111 82.5995V73.7819H61.5111V82.5995H64.5111ZM62.78 75.2819H63.0111V72.2819H62.78V75.2819Z" fill="#F3F8B8"/>
</svg>
