<svg width="123" height="123" viewBox="0 0 123 123" fill="none" xmlns="http://www.w3.org/2000/svg">
<circle cx="61.5" cy="61.5" r="61" stroke="#EFEFEF"/>
<path fill-rule="evenodd" clip-rule="evenodd" d="M87.1084 58.2612C87.4553 47.2176 84.2634 34.7958 77.5329 21C65.3586 25.8541 57.8115 32.2211 54.8915 40.101L59.8016 37.9529C64.7757 44.2297 68.6725 50.127 71.4922 55.6448C78.8771 70.0898 78.8965 81.9444 71.5505 91.2086C78.9434 84.4457 84.1207 76.6366 85.8364 67.85C85.8364 67.85 84.518 65.7638 81.8784 61.592L87.1084 58.2612Z" stroke="#0D4A07" stroke-width="1.5" stroke-linejoin="round"/>
<path d="M71.4113 47.3906C72.0574 42.2675 73.0341 37.0403 74.1226 32.9571L72.3303 32.4839C71.2249 36.6282 70.2328 41.9426 69.5753 47.1565C69.4059 48.4986 69.2587 49.8344 69.1374 51.1423L68.9594 51.2755L69.1073 51.4726C68.8062 54.8296 68.6793 57.9893 68.7906 60.5824L70.6378 60.5121C70.5369 58.1188 70.6446 55.22 70.908 52.1253L82.5491 43.4157L81.4402 41.9377L71.1483 49.6378C71.2284 48.8937 71.3163 48.1433 71.4113 47.3906Z" fill="#0D4A07"/>
<path fill-rule="evenodd" clip-rule="evenodd" d="M27.9933 31.7369C24.719 42.1529 29.54 55.0275 42.4563 70.3608L50.6192 71.213C48.3175 76.7801 47.1004 79.4846 47.0999 79.4842C45.7815 82.0155 57.2909 89.2078 70.8621 92.0438C71.0965 91.7677 71.3257 91.4892 71.5498 91.2084C78.8963 81.9438 78.8768 70.0892 71.4914 55.6446C68.6723 50.1268 64.7754 44.2295 59.8009 37.9527L54.8908 40.1009L49.9814 42.2497C49.1737 37.0365 48.7828 33.4057 48.8086 31.3572C40.4425 29.1512 33.5027 29.2778 27.9933 31.7369Z" stroke="#0D4A07" stroke-width="1.5" stroke-linejoin="round"/>
<path d="M35.2152 35.3042C43.8006 41.4689 51.1406 49.2654 57.235 58.6937C59.7701 62.6186 62.0892 66.8237 64.1923 71.3088L63.3938 60.7546L65.241 60.6168L66.4345 76.3938C68.4371 81.2284 70.2103 86.3602 71.7543 91.7895L69.9718 92.2993C66.7182 80.855 62.4462 70.7722 57.1558 62.0506L42.6003 53.7079L43.522 52.0998L55.0237 58.6922C49.1876 49.9063 42.2259 42.6102 34.1387 36.804L35.2152 35.3042Z" fill="#0D4A07"/>
<path fill-rule="evenodd" clip-rule="evenodd" d="M68.9 96.2993C79.1617 96.2993 87.4833 97.5227 87.4833 99.031C87.4833 100.539 79.1617 101.763 68.9 101.763C58.6383 101.763 50.3167 100.539 50.3167 99.031C50.3167 97.5227 58.6358 96.2993 68.9 96.2993Z" fill="#BCE1B8"/>
</svg>
