<svg width="1920" height="1080" viewBox="0 0 1920 1080" fill="none" xmlns="http://www.w3.org/2000/svg">
<g clip-path="url(#clip0_335_1309)">
<rect width="1920" height="1080" fill="#EBF0F2"/>
<rect width="1920" height="1080" fill="url(#paint0_radial_335_1309)" fill-opacity="0.2"/>
<rect width="1920" height="1080" fill="url(#paint1_radial_335_1309)" fill-opacity="0.2"/>
<rect width="1920" height="1080" fill="url(#paint2_radial_335_1309)" fill-opacity="0.2"/>
<g clip-path="url(#clip1_335_1309)">
<g filter="url(#filter0_d_335_1309)">
<path d="M86.0136 1049.38L186.561 998.166L112.203 852.202L190.715 708.403L91.6761 654.359L50.1689 730.367L10.8574 653.2L-89.6895 704.384L-15.3323 850.374L-93.8431 994.147L5.19492 1048.22L46.7025 972.182L86.0136 1049.38Z" fill="#304780"/>
<path d="M82.9636 1050.92C83.7006 1051.39 84.405 1050.56 83.2766 1048.77L81.0792 1048.2L82.9636 1050.92Z" fill="#3B2335"/>
<path d="M79.3448 1036.84C77.4991 1034.99 74.9103 1033.11 74.2384 1035.26C76.8078 1036.7 76.4624 1037.54 79.3905 1039.02C80.5189 1040.81 80.5708 1042.55 79.8533 1042.52C80.5902 1042.99 81.0143 1045.61 82.4684 1046.15C82.384 1043.09 80.864 1039.99 78.2364 1037.24C78.2232 1036.36 78.9602 1036.84 79.3188 1036.87L79.3448 1036.84Z" fill="#3B2335"/>
<path d="M62.7823 1013.4C63.1841 1013.99 63.5877 1014.46 64.0181 1014.85C63.6918 1014.36 63.3651 1013.89 63.0647 1013.37C62.9622 1013.37 62.8849 1013.4 62.7827 1013.37L62.7823 1013.4Z" fill="#3B2335"/>
<path d="M6.33767 1038.26L6.83808 1037.34C6.81758 1036.98 6.7458 1036.62 6.64839 1036.26L6.33767 1038.26Z" fill="#3B2335"/>
<path d="M26.8088 1000.24C26.2839 1001.08 27.3985 1002.04 27.7739 1002.69C27.5285 1001.91 27.6164 1001.15 27.9355 1000.36C27.707 1000.2 27.3484 1000.17 26.8341 1000.26L26.8088 1000.24Z" fill="#3B2335"/>
<path d="M63.608 1002.12L64.3376 1003.11C64.1361 1002.85 63.8347 1002.41 63.608 1002.12Z" fill="#3B2335"/>
<path d="M133.696 1032.67C133.696 1032.67 133.596 1032.52 133.571 1032.44C133.413 1032.69 133.386 1032.82 133.696 1032.67Z" fill="#3B2335"/>
<path d="M85.8387 1049.04L86.4339 1048.66C86.3867 1048.38 86.3134 1048.12 86.1889 1047.87L85.8387 1049.04Z" fill="#3B2335"/>
<path d="M27.9094 699.838C27.1759 695.545 32.4501 705.109 30.898 698.881C30.6563 699.647 26.3141 694.84 27.9094 699.838Z" fill="#3B2335"/>
<path d="M62.4385 1012.31C62.1638 1011.8 61.8891 1011.28 61.6148 1010.74C61.9375 1011.49 62.1873 1011.95 62.4385 1012.31Z" fill="#3B2335"/>
<path d="M30.899 698.88L30.7287 698.237C30.802 698.494 30.8254 698.648 30.899 698.88Z" fill="#3B2335"/>
<path d="M169.411 951.117C169.398 952.014 169.261 952.679 169.022 953.214C169.677 952.249 172.457 956.931 169.411 951.117Z" fill="#3B2335"/>
<path d="M63.5035 1012.99C63.0933 1012.99 62.7885 1012.78 62.4622 1012.29C62.6878 1012.65 62.8878 1013.01 63.0881 1013.35C63.3189 1013.35 63.5251 1013.28 63.5035 1012.99Z" fill="#3B2335"/>
<path d="M189.902 722.138L189.397 723.413C189.685 722.981 189.871 722.522 189.902 722.138Z" fill="#3B2335"/>
<path d="M189.655 986.209C187.137 981.197 186.804 984.706 185.299 984.146C181.791 978.428 185.143 980.758 184.973 978.294C182.638 974.798 179.616 972.729 178.271 969.94C178.455 969.584 178.284 968.991 178.944 969.462C175.606 966.209 172.931 957.81 168.907 954.085C168.887 953.674 168.916 953.418 169.021 953.266C168.543 954.439 167.74 954.991 167.07 955.161C165.897 952.939 163.891 951.551 164.552 950.15C165.224 951.545 165.713 951.423 166.399 951.895L164.737 949.794C165.24 946.877 166.926 952.723 168.088 952.124C165.252 947.826 161.216 943.152 159.884 939.414C161.06 937.893 164.592 947.33 163.567 941.955L165.741 947.679C166.075 942.299 167.257 951.061 167.921 945.916C164.744 938.561 163.054 938.332 159.902 931.003C158.226 929.851 158.885 932.194 157.209 931.016C150.496 921.687 157.044 921.063 151.212 914.67C149.206 913.282 146.843 913.531 145.182 907.711L147.862 908.621C144.526 901.623 143.335 905.966 140.832 898.134C142.177 899.076 144.169 903.26 143.852 902.127C142.852 896.727 141.174 899.319 139.327 895.727L140.504 894.18C136.504 886.942 131.277 879.429 126.827 871.415C127.517 871.631 128.706 872.776 128.223 870.64C126.244 867.406 124.396 863.918 122.652 860.354C121.78 858.572 120.934 856.739 120.114 854.932L119.492 853.563C119.393 853.331 119.394 853.254 119.345 853.1C119.272 852.842 119.224 852.585 119.176 852.354C119.384 852.126 119.593 851.898 119.775 851.721L119.905 851.595C119.905 851.595 119.956 851.595 120.14 851.29L120.979 850.02C122.106 848.344 123.207 846.692 124.281 845.092L124.986 840.64C125.486 839.775 126.466 839.353 126.194 840.426C128.784 836.899 125.46 839.775 125.952 837.653C127.035 835.438 128.27 835.199 127.913 836.809C130.455 829.485 135.951 816.382 141.222 810.072L140.866 811.657C144.403 806.45 141.54 803.973 145.579 799.517L145.281 800.616C152.373 788.972 158.393 775.107 165.355 767.077C164.395 764.293 172.673 755.718 170.423 753.48C175.46 747.372 174.864 749.594 180.996 740.45C182.519 737.958 181.423 735.712 182.881 732.398L184.308 733.086L185.201 727.995L188.119 726.601L189.396 723.439C188.661 724.582 187.39 725.616 187.087 725.227C187.567 723.977 188.252 722.679 189.014 721.433C189.407 720.823 189.801 720.213 190.219 719.63C190.69 718.995 191.135 718.386 191.554 717.802C193.963 714.349 196.366 711.306 196.906 711.16L199.367 705.886L191.827 702.316L188.235 700.623L186.477 699.803C185.789 699.485 185.662 699.458 185.228 699.272C185.59 699.098 185.873 699.025 187.326 699.61C188.627 700.142 190.233 700.78 191.661 701.365C188.703 700.194 187.301 699.558 186.514 699.06C185.955 698.693 186.035 698.489 186.013 698.232C186.02 697.745 186.078 697.258 183.038 696.445C183.592 697.146 182.208 697.049 181.923 697.276C179.699 694.961 173.592 691.643 168.878 689.523L170.27 689.03C162.233 684.325 152.831 680.086 143.67 675.082C146.715 677.332 145.056 678.564 142.279 677.268L142.001 675.212C139.77 675.18 144.51 677.3 140.342 676.471C137.011 674.423 138.947 673.553 141.17 674.149L136.733 672.393C136.741 671.829 137.839 672.127 138.384 671.698C136.179 671.667 131.999 666.298 128.687 666.533L128.695 665.969C119.535 660.965 115.123 659.209 107.615 655.203C106.777 656.396 104.009 654.51 101.242 654.317C97.4798 651.98 93.5657 649.513 89.4223 646.941C87.7955 649.508 86.0631 652.278 84.2758 655.304C83.4868 656.678 82.6721 658.051 81.857 659.45C81.331 660.366 80.8049 661.281 80.3038 662.249C78.4117 667.223 80.6352 664.177 80.2402 666.685C78.9106 666.409 75.4045 673.052 76.4347 669.169C72.2933 677.188 71.1328 679.428 66.5965 689.955C67.6599 689.124 68.5478 688.008 68.587 688.855C67.7902 690.767 65.8385 692.739 65.4363 692.169L65.5723 691.633C63.3563 697.73 58.9868 703.771 54.8262 709.559C53.832 710.93 52.8635 712.301 51.9209 713.646C51.5839 713.898 51.3506 714.074 51.1685 714.251C50.8041 714.63 50.7205 715.091 50.4618 717.036L50.5186 716.652L50.2453 717.828C49.8592 717.925 49.3245 717.661 48.6146 717.087C48.1938 716.029 48.5264 716.085 48.8099 715.987C49.1443 715.915 49.3802 715.559 49.418 714.713C49.1352 714.76 48.855 714.628 48.5759 714.419C48.4492 714.315 48.2972 714.184 48.1968 714.029C48.1214 713.925 48.1206 713.977 47.9705 713.718L47.52 712.942C46.3699 710.874 45.4239 708.886 44.5284 706.949C42.7374 703.077 41.1746 699.387 38.3833 695.526C38.5273 687.27 26.4271 672.632 24.1581 662.752L23.6064 663.667C21.6582 661.819 22.6743 660.705 22.0074 658.925C21.4865 659.482 22.5311 661.754 21.3681 660.583L19.9925 658.153C19.2684 656.783 18.5186 655.413 17.7946 654.044C16.3222 651.202 14.8249 648.308 13.3277 645.414C9.89212 647.134 6.43058 648.88 2.94339 650.625L-1.08557 652.593L-4.20939 654.036C-8.3658 655.951 -12.5988 657.84 -16.8314 659.702C-25.2966 663.428 -33.8376 667.075 -42.0991 670.906C-49.4061 674.341 -44.0357 677.187 -54.0759 679.865L-52.2659 677.044C-58.5847 681.313 -65.4576 684.882 -72.329 688.348C-75.7649 690.094 -79.2005 691.814 -82.6104 693.535C-84.9104 694.759 -87.1844 695.957 -89.4584 697.156C-92.4045 698.729 -95.2482 700.304 -97.9628 701.829C-96.9622 703.588 -95.9608 705.295 -94.9855 707.027C-96.1696 705.548 -96.8341 705.385 -98.1061 702.879C-97.526 705.349 -94.7827 710.774 -92.3057 715.092C-90.8509 717.37 -89.3122 719.162 -88.8734 718.963C-87.8544 721.234 -89.425 719.878 -89.1914 721.471C-88.3162 724.818 -83.9553 728.317 -84.2169 730.468C-84.2477 730.826 -85.0026 729.815 -85.3798 729.297C-83.8396 730.986 -80.8698 738.491 -80.5517 735.983C-78.4527 741.629 -74.7951 745.887 -73.3742 750.524C-70.5567 752.565 -69.4066 759.993 -66.9681 759.848C-69.2344 760.508 -63.883 770.048 -61.1799 772.908C-62.3736 772.096 -60.3292 776.177 -61.8807 775.283C-59.8839 779.107 -57.7262 782.446 -56.9907 781.226C-55.8537 789.577 -47.7424 794.438 -48.8745 800.064C-41.9518 810.909 -35.8147 821.101 -30.0856 831.134C-32.3266 831.819 -36.0795 819.892 -38.0249 821.428C-32.2086 830.744 -27.583 835.452 -23.1605 845.389C-22.1727 848.045 -24.7879 844.417 -25.5735 843.765C-24.6209 845.291 -23.7199 846.843 -22.8701 848.394C-22.4951 849.066 -22.1201 849.738 -21.7446 850.385C-22.9561 852.599 -24.1411 854.762 -25.3002 856.899C-26.8816 859.877 -28.3348 862.857 -29.5328 865.917C-29.7104 865.786 -29.4137 864.765 -29.092 863.795C-29.9371 865.501 -31.531 867.555 -30.5094 867.852L-29.8683 866.066C-27.0705 864.106 -30.7039 874.261 -30.1753 874.961C-31.2678 870.662 -35.4459 883.041 -36.3035 876.668C-36.731 877.867 -37.0622 879.504 -36.2941 879.592C-37.3678 881.141 -38.0136 881.465 -37.8047 879.416C-40.5877 885.711 -38.436 884.101 -41.4377 889.546C-41.8699 889.283 -41.4424 888.084 -41.661 887.234C-42.2974 890.482 -42.9338 893.73 -45.8435 898.125C-45.9658 897.713 -46.6116 898.037 -45.8226 896.664C-50.0148 904.656 -50.8814 911.44 -56.4619 919.669C-56.9998 916.045 -58.7049 922.278 -60.6473 921.815L-62.6929 926.761L-60.8515 925.325C-63.1154 929.396 -63.8694 933.694 -66.3263 936.916L-65.354 933.493L-69.2107 941.337L-66.2043 937.353C-67.6042 941.975 -63.8297 938.08 -67.2892 943.262C-66.8617 942.063 -69.5531 947.333 -71.7048 948.943C-72.2767 951.269 -72.8493 953.646 -74.9157 956.463C-75.8718 956.962 -76.431 954.825 -77.0764 955.124C-76.7571 957.898 -81.9101 964.928 -81.8041 968.264C-81.6868 967.239 -82.5512 966.714 -82.8871 966.889L-82.6638 969.2C-84.073 970.898 -84.3833 971.073 -84.9378 970.399C-88.2494 975.993 -81.8254 969.751 -86.4289 976.019C-86.2409 975.432 -86.5512 975.607 -86.098 974.408C-88.1176 977.534 -89.6774 980.794 -91.1845 983.953C-91.5812 984.793 -92.0036 985.633 -92.3999 986.448C-92.9015 987.441 -93.4026 988.409 -93.9041 989.402C-94.9064 991.336 -95.9592 993.219 -97.1673 995.202L-96.2524 995.779C-96.2641 996.6 -97.2861 996.329 -98.7127 995.667C-97.8116 993.629 -95.6316 990.044 -97.9177 992.088C-98.5775 993.387 -99.2372 994.685 -99.8973 996.009C-96.5616 997.673 -93.1991 999.26 -90.015 1000.77C-88.2063 1001.61 -87.3902 1001.93 -86.2181 1002.46L-82.9303 1003.89C-78.547 1005.83 -74.267 1007.81 -70.428 1010.15L-71.9513 1009.08C-69.4388 1007.35 -66.0949 1013.8 -61.0867 1015.08C-62.2606 1014.68 -63.2233 1015.64 -62.7855 1015.52C-57.0163 1019.17 -50.255 1021.6 -40.8004 1025.78L-42.2619 1025.76C-39.0405 1028.25 -33.158 1031.15 -29.5245 1033.51C-28.063 1033.53 -25.9525 1034.79 -26.7758 1033.19C-22.1494 1037.85 -16.7237 1040.41 -11.3195 1042.7C-8.6174 1043.84 -5.94022 1044.93 -3.39381 1046.2C-0.236459 1047.78 2.71431 1049.46 6.14086 1051.95C6.63721 1051.32 7.15884 1050.71 7.73212 1050.07C7.25811 1050.94 6.77855 1052.19 6.45875 1053.03C5.87085 1052.89 5.66499 1052.94 6.37741 1053.34L6.58107 1053.44L9.83006 1046.85C10.8345 1044.76 12.0229 1042.37 12.605 1041.12C11.1926 1041.25 11.3632 1041.87 9.36317 1043.64C9.59549 1041.74 10.3758 1039.19 11.5876 1036.95C10.1146 1041.31 13.2678 1037.82 14.8008 1036.43C14.3118 1036.55 14.2975 1035.76 13.8876 1035.72C18.2734 1032.12 12.2226 1033.8 16.9194 1028.18L17.2952 1028.8C18.306 1026.27 18.7786 1023.72 20.327 1021.25C22.1025 1020.84 19.517 1024.08 20.4049 1024.76C22.2776 1021.15 21.9859 1016.45 24.9464 1013.88C24.4602 1015.59 23.2748 1017.78 22.7633 1019.46C26.111 1016.72 25.966 1016.1 27.6174 1013.61L27.4346 1013.84L31.389 1008.12L30.1644 1009.47C29.4838 1003.28 34.5824 1000.04 35.8135 992.877C34.56 999.809 36.4064 994.45 37.5177 995.645C38.7423 994.304 40.4394 992.199 40.4525 993.072C40.6823 991.357 41.5442 990.266 42.434 989.022C42.6175 988.743 42.8267 988.464 43.0362 988.159C43.141 988.007 43.2462 987.829 43.3004 987.624C43.4601 987.216 43.5191 986.678 43.5334 985.678C43.8869 986.068 44.4536 984.102 44.8627 985.98C45.1843 985.01 45.0862 984.701 44.8301 984.671C44.5745 984.616 44.1349 984.866 44.0133 984.403C44.4299 982.178 45.608 980.502 46.4934 979.566C47.1343 981.37 47.6481 983.096 48.2198 984.361C48.8165 985.677 49.4193 986.558 50.7877 987.706C55.2826 994.387 57.4792 995.008 61.6205 1001.3C62.0446 1003.92 59.0448 1000.29 59.0448 1000.29C60.2446 1004.25 61.7448 1006.94 64.0076 1010.1C63.271 1009.61 63.3098 1010.48 63.3423 1011.79C64.8682 1014.48 65.8924 1012.8 67.0922 1016.77C66.2768 1016.39 65.0773 1015.99 63.9129 1014.92C65.9724 1017.95 68.4458 1020.73 70.5548 1023.89C70.2287 1025.17 68.3439 1022.48 67.229 1021.54C69.5111 1025.13 72.9156 1030.95 74.7287 1031.49L73.946 1028.84C74.6961 1030.18 73.2614 1030.09 72.505 1029.18C69.9026 1026.45 70.5489 1024.3 70.9137 1023.9L72.4202 1026.15C73.7823 1022.38 67.1178 1016.77 64.8027 1011.89L67.7371 1012.93L63.6418 1008.79C63.6092 1007.48 64.2939 1006.24 65.8007 1008.46C64.9852 1004.53 63.5569 1005.76 63.1197 1002.27C63.1256 1001.86 63.278 1001.96 63.5051 1002.22L61.2155 999.139C61.9529 999.586 62.2848 997.898 63.0481 1000.11C61.0656 993.495 56.6633 991.098 56.9374 988.076L57.3158 988.518C54.9101 984.585 54.2497 984.14 53.9091 984.648C53.5435 985.104 52.9739 985.48 50.9759 983.528C51.1899 981.121 51.0798 978.067 50.6455 974.368C50.2554 974.747 49.8898 975.204 49.5495 975.686C49.0774 974.628 48.1083 972.46 48.4014 971.694C47.3125 970.73 47.4066 971.321 47.5512 971.964C47.7212 972.634 47.9152 973.406 47.3764 973.424C47.1567 972.651 46.911 971.904 46.6136 971.182C45.3864 972.703 43.9053 975.836 42.6939 978.05C41.4564 980.289 40.3828 981.838 39.337 981.438C39.2659 982.822 40.0754 981.808 40.544 981.327C41.0388 980.796 41.2187 980.773 40.2582 983.375C38.9828 982.895 38.057 984.856 37.4951 986.49C36.8807 988.199 36.2861 990.319 34.7245 991.912C34.1349 990.109 36.72 986.889 33.5972 990.05C34.4208 993.421 29.1617 997.116 27.8312 1000.48C29.3806 1001.53 24.7525 1007.72 22.4153 1013.33C22.0399 1012.68 16.0728 1022.83 12.7752 1027.45L12.5742 1027.17C13.7015 1029.03 10.6047 1033.96 8.93344 1037.83C8.01994 1037.15 8.00716 1036.26 8.65487 1034.01L6.75841 1037.49C6.80162 1038.06 6.74187 1038.65 6.55174 1039.39C6.38833 1040.05 6.2784 1040.56 5.90658 1041.46C5.6839 1040.89 5.43486 1040.37 5.13341 1039.93C4.63228 1040.9 4.28093 1042.15 3.74643 1043.66C2.9798 1043.47 2.06115 1043.15 1.04216 1042.67C0.532657 1042.43 0.0238883 1042.14 -0.510159 1041.83C-1.09474 1041.46 -2.08589 1040.83 -2.84702 1040.25C-3.80969 1041.22 0.147125 1046.07 -6.58483 1043.38C-6.4716 1042.64 -6.121 1041.44 -4.33499 1042.08C-4.92177 1041.87 -6.55835 1041.53 -7.49492 1040.68L-4.39647 1041C-6.85639 1039.07 -6.29569 1041.1 -8.40585 1039.82C-7.88054 1038.95 -9.66655 1038.31 -8.96619 1037.76C-8.35376 1037.97 -7.26812 1039.17 -6.2436 1039.26C-8.60721 1037.76 -11.295 1035.62 -11.893 1034.41C-11.9531 1035.02 -12.5514 1035.6 -14.411 1034.73C-19.0943 1032.25 -15.409 1032.79 -17.869 1030.86C-19.3305 1030.84 -21.9398 1028.59 -22.7534 1029.89C-24.1021 1029.15 -24.0141 1028.38 -24.3382 1027.74C-27.0718 1027.01 -35.6396 1021.78 -33.7064 1024.68L-33.1482 1025.1C-33.1482 1025.1 -33.4288 1024.99 -33.5819 1024.94C-42.1819 1021.97 -49.5228 1015.25 -57.651 1011.57L-57.3884 1011.13C-62.3343 1009.09 -67.9289 1005.78 -71.7889 1004.9C-73.1628 1004.14 -74.5986 1002.32 -73.7235 1002.1C-77.4702 1000.49 -78.1412 1000.78 -82.886 997.228C-78.8766 998.414 -83.7383 995.856 -78.906 998.67C-81.1161 997.202 -82.3834 996.158 -83.8072 995.291C-84.1123 995.107 -84.621 994.818 -84.8247 994.712C-85.0284 994.607 -85.258 994.527 -85.539 994.446C-86.0752 994.284 -86.7657 994.146 -87.8909 993.925C-86.4268 993.766 -87.0048 992.937 -87.7158 992.44C-87.4011 991.957 -87.189 991.473 -87.1585 991.14C-87.7296 991.619 -88.3531 992.174 -89.0293 992.831L-88.9798 992.96C-88.9798 992.96 -89.133 992.907 -89.1839 992.88C-88.6263 991.555 -87.8127 990.258 -87.0526 989.115C-86.6486 989.557 -86.1922 989.923 -85.7091 990.212C-85.4501 990.036 -85.268 989.859 -85.0864 989.708C-84.8516 989.429 -84.3794 988.692 -84.09 988.183C-83.4332 987.09 -82.8529 985.97 -82.3496 984.849C-81.3172 982.607 -80.5409 980.335 -79.7665 978.192C-78.2169 973.855 -76.6471 969.902 -73.1709 967.131C-72.8447 964.058 -76.7267 971.875 -76.7104 968.952C-74.1363 964.706 -69.4974 961.336 -68.7596 959.962C-64.68 954.455 -67.919 953.203 -63.9356 947.259C-64.9173 947.758 -66.7378 947.732 -64.6926 942.812C-62.1184 938.566 -59.5298 938.68 -60.5985 941.665C-61.1267 942.735 -61.5685 943.139 -61.7205 943.008C-62.3063 944.513 -63.0785 946.502 -61.5451 945.088L-61.7638 944.239C-60.0443 942.366 -56.829 936.334 -56.7024 938.233C-55.4202 934.661 -56.8034 936.334 -58.4265 938.645C-54.6081 933.468 -53.6339 929.917 -49.9649 924.43C-50.7707 925.188 -51.855 925.685 -51.3546 924.769C-46.084 916.689 -50.3445 920.501 -47.4395 914.644C-44.8603 911.834 -46.1378 916.868 -43.6651 910.748C-41.1825 907.527 -41.8446 910.774 -42.1758 912.411C-40.3484 906.59 -36.1421 902.983 -34.331 900.085L-35.4 903.096C-34.7589 901.31 -33.9959 899.962 -33.2581 898.588L-35.1958 899.586C-34.1225 898.062 -33.3591 896.688 -32.9529 896.976C-32.744 894.928 -35.4192 897.274 -34.5692 893.44C-32.8497 891.567 -31.5465 886.533 -29.7261 886.559C-33.9234 893.116 -27.88 886.586 -30.811 892.468C-30.3834 891.269 -29.6204 889.92 -28.5471 888.397C-28.2628 888.247 -28.3731 888.784 -28.5596 889.269C-23.7316 883.439 -28.5041 885.397 -24.8174 878.679C-24.4768 879.966 -22.4474 877.944 -22.0199 876.745C-23.5207 879.467 -24.054 877.305 -23.3212 874.495C-20.3405 870.511 -21.2243 869.55 -19.91 867.312L-21.6119 869.749C-21.9265 868.437 -20.6396 866.327 -19.2607 863.166C-18.4926 863.254 -20.3293 866.152 -19.4696 865.215C-19.2607 863.166 -17.8515 861.468 -16.3122 859.644C-15.5298 858.732 -14.7213 857.795 -14.0136 856.728C-13.8568 856.525 -13.5938 856.067 -13.3572 855.66L-12.6465 854.388C-12.1981 853.522 -11.775 852.631 -11.4545 851.738C-11.0625 851.23 -10.7497 850.876 -10.4899 850.649C-10.5455 849.16 -8.64935 851.06 -9.71145 848.224C-10.4645 847.084 -11.0659 846.101 -11.5662 845.222C-11.8164 844.783 -12.0412 844.369 -12.2409 843.981C-12.3658 843.749 -12.465 843.517 -12.5899 843.284C-12.9873 842.381 -13.2323 841.582 -13.4517 840.784C-13.89 839.162 -14.3533 837.488 -16.2143 834.923C-16.4763 837.099 -16.0679 837.233 -19.1479 833.829L-13.7089 842.627L-18.3034 837.534C-16.9073 840.324 -14.6378 843.024 -13.9705 844.777C-16.296 842.41 -15.8623 842.57 -16.0932 844.362C-16.386 839.742 -20.8649 837.318 -21.9994 832.378L-19.2375 831.135C-21.391 823.923 -26.594 820.13 -30.2619 811.23L-29.3302 814.218C-30.9884 813.605 -32.1794 809.023 -34.0147 806.457C-32.9862 806.267 -33.5231 804.361 -33.579 802.899C-34.1758 803.378 -36.7201 796.596 -38.9021 796.744L-39.6593 792.323C-42.6857 785.175 -46.2585 785.74 -49.3156 778.951C-47.311 780.441 -48.2123 777.12 -45.2444 781.189C-46.3666 778.968 -47.2086 776.878 -47.854 777.177C-47.9594 775.585 -52.2116 771.652 -52.381 769.162C-53.2425 768.431 -54.3476 768.595 -55.5423 766.064C-55.4859 765.706 -55.1031 765.84 -55.1031 765.84C-55.5423 766.064 -57.693 762.238 -57.5778 764.933C-58.2543 756.665 -67.5125 745.94 -68.1275 738.751C-70.9071 734.069 -74.1595 728.381 -76.4563 724.013C-76.0479 724.148 -75.9915 723.789 -75.6707 724.666C-77.9113 718.171 -80.1499 722.268 -82.737 714.896C-83.0606 710.634 -80.0911 718.165 -80.6452 715.67C-79.4484 714.482 -80.4974 712.518 -81.9775 710.214C-82.3291 709.696 -82.4562 709.617 -82.7074 709.254C-82.9338 708.944 -83.1858 708.632 -83.3862 708.296C-83.7868 707.623 -84.0586 706.901 -83.8227 706.546C-83.6688 706.548 -83.5406 706.55 -83.4121 706.526L-83.5165 706.653L-83.2136 706.99C-83.2136 706.99 -83.1348 706.863 -83.1337 706.786C-82.0026 706.597 -81.7645 706.088 -80.9311 705.202C-80.7985 704.896 -79.3739 703.917 -78.2091 703.164C-76.9926 702.386 -75.7252 701.635 -74.331 700.988C-74.331 700.988 -74.4908 701.396 -74.1326 701.453C-70.9273 697.908 -63.6847 693.601 -58.3294 690.344C-59.4613 692.379 -60.5624 692.261 -58.879 692.901C-56.4731 691.448 -60.5756 691.389 -55.7642 688.509C-53.8122 688.306 -49.9474 687.053 -48.8079 688.07L-53.4852 690.542C-50.234 690.947 -47.413 687.372 -44.809 686.409L-44.7702 687.281C-37.6874 683.382 -38.4814 681.524 -30.6818 677.712L-31.7568 677.569C-28.4179 673.641 -27.6931 676.755 -24.13 673.293L-21.9411 674.452C-19.3755 672.591 -13.0483 667.732 -8.18528 664.827C-10.3539 667.617 -15.8689 671.282 -19.0869 673.929C-16.2972 672.533 -9.7327 669.011 -8.73483 667.384C-9.77148 668.138 -10.9418 669.276 -12.177 669.566C-9.49046 666.424 -5.36988 663.431 0.157978 660.664C0.421278 661.976 2.09158 661.743 4.43809 660.854C4.85055 660.706 5.28901 660.532 5.72746 660.359C6.06299 660.21 6.42416 660.061 6.78533 659.913C7.50804 659.59 8.25676 659.241 8.92709 658.994C9.62077 660.697 10.1093 662.397 9.40343 663.335C9.45471 663.336 9.70561 663.724 9.88142 663.983L10.4334 664.838L11.5109 666.597C12.212 667.787 12.8617 668.976 13.4851 670.216C14.7578 672.67 15.9012 675.2 17.044 677.781C19.329 682.968 21.6104 688.412 24.6067 694.072C25.2744 688.644 26.3805 697.354 28.8216 695.235C30.3493 697.796 30.8217 698.828 30.7657 699.161L33.1773 708.043C33.3237 710.354 31.2855 705.836 30.7646 706.393C33.5009 712.305 30.8238 709.42 32.0455 713.644C32.654 712.344 34.5147 714.936 35.798 718.442L34.7202 713.118C36.13 714.959 36.9046 716.38 37.3742 717.618C37.6214 718.263 37.7173 718.726 37.9125 719.421C38.1817 720.322 38.4516 721.173 38.6963 721.997C39.2097 723.748 39.7986 725.603 40.7915 727.9C41.7844 730.196 43.2579 732.962 45.2914 736.017C44.383 734.978 43.4505 733.836 42.4425 732.591C44.1958 735.514 46.8908 740.733 49.7883 746.135C54.3509 737.352 59.3926 727.346 60.3613 722.384C61.246 721.499 62.9314 720.216 61.318 723.629C61.9236 722.535 62.5551 721.416 63.187 720.271C63.5559 719.583 63.8992 718.896 64.2681 718.209C64.9282 716.885 65.5887 715.535 66.1979 714.184C67.4683 711.433 68.6626 708.629 69.8561 705.876C72.2428 700.397 74.6243 695.276 77.3925 691.802L77.6588 692.909C78.4816 690.972 78.1505 689.018 80.0762 687.071C80.2777 687.33 80.3425 688.177 80.8417 687.338C81.1396 686.24 82.3317 681.794 84.0563 679.562L83.687 682.07C86.7531 677.498 88.3229 673.545 89.6091 669.691C90.2264 667.777 90.8429 665.913 91.4606 663.973C91.6028 663.001 91.9285 661.749 92.4853 660.474C92.808 661.223 93.2398 661.511 93.5955 661.747C93.9724 662.291 94.5507 663.094 95.103 663.923C95.3297 664.208 95.3026 664.31 95.6319 664.597C96.4447 665.147 97.2069 665.646 97.8421 666.065L97.5571 666.266C108.647 672.631 117.512 675.015 128.316 679.915C133.595 685.581 149.674 692.736 159.373 699.594C157.98 698.369 160.47 698.199 162.433 698.997C164.64 700.721 169.915 701.284 168.532 702.905L167.693 702.406C168.551 705.188 173.801 707.443 177.694 709.628L179.646 707.604C179.924 707.89 180.202 708.176 180.48 708.462L180.91 708.879C180.91 708.879 181.01 709.06 181.06 709.137C181.236 709.448 181.411 709.707 181.562 709.914C181.889 710.355 182.193 710.667 182.599 710.955C182.153 711.641 181.913 712.278 181.619 713.095C180.535 715.387 179.477 717.655 178.472 719.743C176.359 724.047 174.333 727.608 172.056 729.038C171.298 731.822 169.638 734.876 168.906 737.635L167.713 736.797C163.668 743.433 161.646 746.763 157.342 755.37L157.374 753.165C154.691 757.871 157.772 761.172 155.452 765.601L152.832 765.871C148.327 774.193 142.065 781.669 139.318 790.81C139.117 790.526 138.689 789.981 139.35 788.605C137.165 792.498 129.808 803.01 133.193 803.033C131.435 802.212 128.353 811.503 126.641 816.403L125.763 815.031C125.312 819.692 125.691 820.056 123.227 825.586C122.39 826.754 121.629 826.128 122.856 824.658C119.929 828.463 122.261 828.547 118.835 833.243L119.073 830.912C116.627 835.16 117.244 835.041 116.895 837.908C115.929 840.895 112.14 845.867 110.652 845.897C110.726 846.103 110.773 846.386 110.793 846.771C110.735 847.257 110.624 847.82 110.462 848.407C110.137 849.608 109.656 850.96 108.892 852.386C109.116 852.825 109.315 853.289 109.513 853.779C109.249 854.314 108.266 853.069 107.738 852.369C108.283 853.685 108.855 854.975 109.427 856.163C109.727 856.757 110.026 857.326 110.3 857.894C110.525 858.282 110.725 858.67 110.95 859.057C111.751 860.454 112.58 861.645 113.359 862.785C114.917 865.038 116.273 867.033 116.925 869.863C116.561 870.191 116.503 870.626 116.599 871.089C113.682 865.277 111.364 860.577 111.692 860.966C110.53 861.565 112.692 866.34 109.169 863.443C111.969 866.74 117.148 872.174 118.925 877.021C118.921 877.303 118.917 877.56 118.836 877.841L118.458 877.425C118.878 878.534 119.455 879.414 120.11 880.218C120.652 881.765 120.997 882.77 121.669 884.164C120.962 885.206 123.871 889.787 125.017 892.163C126.209 891.308 127.548 894.481 127.161 891.065C127.258 891.477 126.782 890.7 125.932 889.175C125.706 888.838 125.48 888.451 125.304 888.243C125.355 888.269 125.431 888.296 125.507 888.348C124.709 886.824 123.66 884.86 122.461 882.586C124.055 884.096 125.571 885.733 126.169 888.691C127.595 889.455 129.121 890.349 129.908 890.899C129.746 895 131.908 901.648 131.246 903.074C135.586 909.83 140.267 919.617 144.965 922.864C146.298 924.73 145.465 925.539 145.477 926.488C144.646 925.45 143.974 924.03 143.288 923.584C145.978 927.316 149.632 935.446 151.81 935.554C153.655 941.043 148.788 933.485 152.639 940.336L151.649 939.656C155.971 954.823 167.362 959.884 171.708 976.95C171.391 975.791 171.22 975.199 171.379 974.842C173.088 979.073 175.08 983.23 177.175 987.363L178.772 990.464L180.195 993.126L182.446 997.107L177.87 999.658C175.648 1000.86 173.168 1002.13 170.817 1003.28C166.039 1005.62 161.213 1007.75 156.265 1009.45C151.132 1011.46 151.139 1012.79 148.566 1015.14L146.809 1014.29L142.517 1018.49C135.882 1023.34 128.266 1021.49 120.218 1028.35L121.88 1028.68C118.499 1030.17 111.743 1034.54 111.737 1033.18C111.476 1033.51 111.151 1034.68 109.61 1034.87L109.132 1034.19L101.669 1039.55C95.1427 1042.22 101.179 1036.18 91.9846 1040.69C88.7245 1042.7 83.3694 1047.72 84.9104 1047.56C86.305 1046.89 88.6482 1046.23 89.1258 1046.91L86.1997 1048.87C86.7293 1051.28 85.4496 1054.68 93.8188 1052.28L98.4669 1048.27L100.696 1048.43L96.2511 1050.78C99.2818 1050.46 100.46 1048.79 101.969 1047.27C102.682 1047.61 103.606 1047.6 104.764 1047.29L108.96 1042.6C110.005 1043.1 107.458 1045.45 111.195 1044.12C113.15 1041.94 107.897 1043.46 111.628 1040.77C114.659 1040.43 114.335 1041.6 116.882 1039.25C117.569 1039.6 117.124 1040.26 116.06 1041.11C118.371 1039.09 122.963 1037.26 123.758 1035.43C127.017 1035.27 132.573 1030.55 133.338 1032.69C133.915 1031.78 137.216 1028.72 139.62 1027.4C136.398 1032.07 148.84 1022.89 148.974 1026.07C151.158 1022.23 160.41 1019.03 165.625 1014.84C165.389 1015.17 164.918 1015.86 164.352 1016.01C167.733 1014.52 169.012 1014.69 171.356 1014C170.872 1012 175.788 1008.99 177.978 1006.46C182.881 1006.14 176.597 1009.8 178.711 1010.83C178.233 1010.15 179.815 1008.89 181.242 1007.76C181.476 1007.53 182.227 1007.05 182.745 1006.68C183.289 1006.3 183.756 1005.95 184.093 1005.67C184.743 1005.09 184.85 1004.76 184.106 1004.77C186.964 1003.99 188.279 1003.5 189.258 1003.21C190.288 1002.91 191.007 1002.85 193.447 1002.55C192.739 1001.9 193.054 1001.39 193.907 1000.86C192.83 999.128 192.047 996.476 189.597 993.825C188.444 990.192 188.661 989.349 188.672 988.605C188.674 988.426 188.677 988.221 188.578 987.988C188.555 987.834 188.506 987.654 188.407 987.422C188.183 986.957 187.756 986.284 186.978 985.145C186.477 982.47 189.498 986.412 189.498 986.412L189.655 986.209ZM126.389 871.563C126.939 872.545 127.389 873.398 127.689 873.941C127.414 873.45 127.039 872.778 126.363 871.588L126.389 871.563ZM121.375 861.771C121.922 862.985 122.67 864.483 123.493 866.059C123.229 866.619 122.59 866.482 122.091 865.5C122.649 865.893 121.736 863.444 121.374 861.797L121.375 861.771ZM123.039 887.031C122.059 885.58 122.043 884.913 122.202 884.582C122.602 885.306 123.077 886.134 123.728 887.22C123.805 887.221 123.907 887.3 123.983 887.326C123.65 887.322 123.343 887.24 123.039 887.031Z" fill="#3B2335"/>
<path d="M126.138 888.972C126.289 889.18 126.39 889.284 126.566 889.568C126.52 889.183 126.448 888.849 126.376 888.489C126.147 888.383 125.892 888.251 125.689 888.145C125.838 888.43 125.988 888.714 126.138 888.972Z" fill="#3B2335"/>
<path d="M184.666 733.219L184.335 733.061L184.141 734.058L184.666 733.219Z" fill="#3B2335"/>
<path d="M14.9055 1036.28C15.06 1036.23 15.2926 1036.1 15.6055 1035.75C15.5029 1035.75 15.2176 1035.97 14.9055 1036.28Z" fill="#3B2335"/>
<path d="M27.7225 1013.48L29.9453 1010.49C28.927 1011.76 28.2463 1012.72 27.7225 1013.48Z" fill="#3B2335"/>
<path d="M37.9732 996.164C37.8754 995.83 37.7495 995.674 37.6235 995.518L37.6231 995.544L37.9732 996.164Z" fill="#3B2335"/>
<path d="M70.8099 1029.44L71.2077 1030.31C71.2077 1030.31 71.3879 1030.26 71.4641 1030.32L70.8099 1029.44Z" fill="#3B2335"/>
<path d="M71.4645 1030.32L72.093 1031.2C71.8685 1030.76 71.6688 1030.37 71.4645 1030.32Z" fill="#3B2335"/>
<path d="M73.4501 1033.06L72.092 1031.2C72.441 1031.9 72.8388 1032.77 73.4501 1033.06Z" fill="#3B2335"/>
<path d="M59.332 1005.4L58.7167 1005.39C58.895 1005.47 59.1002 1005.47 59.332 1005.4Z" fill="#3B2335"/>
<path d="M55.5088 998.262C56.2783 1000.04 56.7221 1003.08 58.2285 1005.33L58.7157 1005.34C57.444 1004.6 57.1325 999.491 55.5088 998.262Z" fill="#3B2335"/>
<path d="M42.696 974.305L46.7399 967.721L46.8893 968.031L46.7428 967.516C46.152 967.584 45.3542 967.778 46.7821 964.772C46.8825 964.928 47.0074 965.16 47.1575 965.419C47.0092 965.032 46.8862 964.671 46.7873 964.413C44.1747 967.761 44.5069 967.843 44.8607 968.207C45.1878 968.648 45.3533 969.625 42.67 974.331L42.696 974.305Z" fill="#3B2335"/>
<path d="M30.6065 994.802C32.1158 991.49 29.8677 994.458 29.693 994.122C29.0193 996.395 28.883 996.958 30.6065 994.802Z" fill="#3B2335"/>
<path d="M181.118 710.446C180.81 710.493 180.553 710.54 180.32 710.64C180.628 710.644 180.987 710.649 181.422 710.732L181.118 710.471L181.118 710.446Z" fill="#3B2335"/>
<path d="M96.6074 319.606L197.155 268.397L122.797 122.432L201.308 -21.3406L102.27 -75.411L60.7626 0.597807L21.4511 -76.5695L-79.0961 -25.3601L-4.73854 120.604L-83.2494 264.377L15.7887 318.447L57.2963 242.413L96.6074 319.606Z" fill="#304780"/>
<path d="M93.4246 321.195C94.1615 321.667 94.8659 320.831 93.7375 319.045L91.5401 318.475L93.4246 321.195Z" fill="#3B2335"/>
<path d="M89.8057 307.14C87.9601 305.293 85.3712 303.409 84.6993 305.554C87.2688 307.001 86.9233 307.842 89.8514 309.321C90.9799 311.106 91.0318 312.851 90.3142 312.815C91.0512 313.287 91.4752 315.909 92.9294 316.443C92.8449 313.39 91.3249 310.291 88.6973 307.534C88.6842 306.662 89.4211 307.135 89.7797 307.165L89.8057 307.14Z" fill="#3B2335"/>
<path d="M73.2432 283.668C73.645 284.263 74.0487 284.731 74.479 285.122C74.1527 284.63 73.826 284.163 73.5257 283.646C73.4231 283.645 73.3458 283.669 73.2436 283.642L73.2432 283.668Z" fill="#3B2335"/>
<path d="M16.7986 308.53L17.299 307.614C17.2785 307.255 17.2067 306.895 17.1093 306.534L16.7986 308.53Z" fill="#3B2335"/>
<path d="M37.2697 270.509C36.7448 271.348 37.8594 272.313 38.2348 272.959C37.9894 272.186 38.0774 271.418 38.3965 270.628C38.1679 270.471 37.8093 270.44 37.295 270.535L37.2697 270.509Z" fill="#3B2335"/>
<path d="M74.0689 272.396L74.7985 273.381C74.5971 273.121 74.2956 272.681 74.0689 272.396Z" fill="#3B2335"/>
<path d="M144.157 302.945C144.157 302.945 144.056 302.789 144.032 302.712C143.874 302.966 143.847 303.094 144.157 302.945Z" fill="#3B2335"/>
<path d="M96.2996 319.313L96.8949 318.936C96.8476 318.654 96.7744 318.396 96.6498 318.138L96.2996 319.313Z" fill="#3B2335"/>
<path d="M72.8995 282.586C72.6248 282.069 72.3501 281.552 72.0757 281.009C72.3984 281.758 72.6482 282.223 72.8995 282.586Z" fill="#3B2335"/>
<path d="M179.872 221.39C179.859 222.287 179.722 222.952 179.483 223.487C180.138 222.522 182.918 227.203 179.872 221.39Z" fill="#3B2335"/>
<path d="M73.9645 283.294C73.5542 283.288 73.2495 283.078 72.9231 282.586C73.1487 282.949 73.3487 283.311 73.5491 283.647C73.7798 283.65 73.9861 283.576 73.9645 283.294Z" fill="#3B2335"/>
<path d="M200.116 256.481C197.598 251.47 197.265 254.979 195.76 254.418C192.252 248.701 195.604 251.031 195.434 248.567C193.099 245.071 190.077 243.002 188.732 240.213C188.916 239.856 188.745 239.264 189.405 239.735C186.067 236.481 183.392 228.083 179.368 224.358C179.348 223.947 179.377 223.691 179.482 223.538C179.003 224.711 178.201 225.264 177.531 225.434C176.358 223.212 174.352 221.824 175.013 220.423C175.685 221.817 176.174 221.696 176.86 222.167L175.198 220.066C175.701 217.15 177.387 222.996 178.549 222.397C175.713 218.099 171.677 213.425 170.345 209.687C171.521 208.165 175.053 217.602 174.028 212.227L176.202 217.952C176.536 212.571 177.718 221.333 178.382 216.188C175.205 208.833 173.515 208.604 170.363 201.276C168.687 200.123 169.346 202.466 167.67 201.288C160.957 191.959 167.505 191.335 161.673 184.943C159.667 183.555 157.304 183.803 155.643 177.983L158.323 178.894C154.987 171.896 153.796 176.239 151.293 168.406C152.638 169.349 154.63 173.532 154.313 172.399C153.313 166.999 151.635 169.591 149.788 166L150.965 164.452C146.965 157.214 141.738 149.702 137.288 141.688C137.978 141.903 139.167 143.048 138.684 140.913C136.705 137.679 134.857 134.19 133.113 130.626C132.241 128.844 131.395 127.011 130.575 125.204L129.953 123.836C129.854 123.604 129.855 123.527 129.806 123.372C129.733 123.115 129.685 122.858 129.637 122.626C129.845 122.398 130.054 122.17 130.236 121.994L130.366 121.867C130.366 121.867 130.417 121.868 130.601 121.563L131.44 120.293C132.567 118.616 133.668 116.965 134.742 115.365L135.447 110.912C135.947 110.048 136.927 109.626 136.655 110.699C139.245 107.171 135.921 110.047 136.413 107.926C137.496 105.71 138.731 105.471 138.374 107.082C140.916 99.7579 146.412 86.6548 151.683 80.3446L151.327 81.9295C154.864 76.7228 152.001 74.2455 156.04 69.7897L155.742 70.8882C162.834 59.2441 168.854 45.3791 175.816 37.3493C174.856 34.5657 183.134 25.9905 180.884 23.7527C185.921 17.6443 185.325 19.8669 191.457 10.7224C192.98 8.23093 191.884 5.98404 193.342 2.671L194.769 3.35824L195.662 -1.73245L198.58 -3.12679L199.856 -6.28856C199.122 -5.14504 197.851 -4.11179 197.548 -4.5008C198.028 -5.75056 198.713 -7.04867 199.475 -8.2944C199.868 -8.90426 200.262 -9.51411 200.68 -10.098C201.151 -10.7324 201.596 -11.3415 202.015 -11.9253C204.423 -15.3786 206.826 -18.4217 207.367 -18.5678L209.828 -23.8412L202.288 -27.4114L198.696 -29.1042L196.938 -29.9245C196.25 -30.2421 196.123 -30.2696 195.689 -30.4553C196.051 -30.6296 196.334 -30.7025 197.787 -30.1175C199.088 -29.5859 200.694 -28.9474 202.122 -28.3627C199.164 -29.5335 197.762 -30.1691 196.975 -30.6677C196.416 -31.0347 196.495 -31.2387 196.474 -31.4955C196.48 -31.9827 196.539 -32.4691 193.499 -33.2821C194.053 -32.5817 192.669 -32.6785 192.384 -32.4517C190.16 -34.7661 184.053 -38.085 179.339 -40.2042L180.731 -40.6972C172.694 -45.403 163.292 -49.6411 154.131 -54.6451C157.176 -52.3959 155.517 -51.163 152.74 -52.4595L152.462 -54.5151C150.231 -54.5471 154.971 -52.4275 150.803 -53.2566C147.472 -55.3047 149.408 -56.1746 151.631 -55.5785L147.194 -57.3347C147.202 -57.8988 148.3 -57.601 148.845 -58.0291C146.64 -58.0608 142.46 -63.4293 139.148 -63.1947L139.156 -63.7588C129.995 -68.7628 125.584 -70.5187 118.076 -74.5244C117.238 -73.3311 114.47 -75.2173 111.703 -75.4108C107.941 -77.7472 104.027 -80.214 99.8832 -82.7867C98.2564 -80.2198 96.5241 -77.4492 94.7368 -74.423C93.9477 -73.0495 93.133 -71.6763 92.318 -70.2774C91.7919 -69.3617 91.2659 -68.446 90.7647 -67.4787C88.8726 -62.5049 91.0961 -65.5505 90.7011 -63.0429C89.3715 -63.3184 85.8654 -56.6751 86.8956 -60.5585C82.7543 -52.5395 81.5938 -50.2993 77.0574 -39.7726C78.1208 -40.6037 79.0088 -41.7194 79.0479 -40.8725C78.2512 -38.9605 76.2994 -36.9881 75.8973 -37.5581L76.0332 -38.0947C73.8172 -31.9971 69.4478 -25.9561 65.2871 -20.1685C64.293 -18.7979 63.3244 -17.4269 62.3819 -16.0812C62.0449 -15.8295 61.8115 -15.6534 61.6295 -15.4765C61.265 -15.097 61.1815 -14.6366 60.9228 -12.6912L60.9796 -13.0751L60.7062 -11.8993C60.3202 -11.8022 59.7854 -12.0664 59.0755 -12.6407C58.6547 -13.6983 58.9873 -13.6422 59.2708 -13.7407C59.6053 -13.8129 59.8412 -14.1685 59.879 -15.0143C59.5962 -14.967 59.3159 -15.0993 59.0368 -15.3085C58.9101 -15.4129 58.7581 -15.5433 58.6578 -15.6986C58.5823 -15.8022 58.5816 -15.751 58.4314 -16.0096L57.9809 -16.7854C56.8309 -18.8535 55.8848 -20.8418 54.9893 -22.7781C53.1983 -26.6506 51.6356 -30.3404 48.8442 -34.2016C48.9882 -42.4575 36.8881 -57.0951 34.619 -66.9756L34.0673 -66.0602C32.1191 -67.909 33.1353 -69.0229 32.4683 -70.802C31.9474 -70.2452 32.992 -67.9734 31.8291 -69.1442L30.4534 -71.5746C29.7293 -72.9442 28.9796 -74.3142 28.2555 -75.6838C26.7831 -78.5259 25.2859 -81.4197 23.7886 -84.3135C20.3531 -82.5932 16.8915 -80.8476 13.4043 -79.1024L9.37536 -77.1341L6.25155 -75.6914C2.09513 -73.7763 -2.13783 -71.8879 -6.37042 -70.0251C-14.8356 -66.2996 -23.3767 -62.6521 -31.6382 -58.8211C-38.9452 -55.3868 -33.5747 -52.54 -43.6149 -49.8629L-41.8049 -52.6837C-48.1237 -48.4145 -54.9966 -44.8456 -61.8681 -41.3794C-65.304 -39.6334 -68.7395 -37.9131 -72.1494 -36.1925C-74.4494 -34.9688 -76.7234 -33.7704 -78.9974 -32.572C-81.9436 -30.9985 -84.7872 -29.4236 -87.5019 -27.8982C-86.5013 -26.1399 -85.4999 -24.4329 -84.5246 -22.7007C-85.7087 -24.1795 -86.3731 -24.3429 -87.6451 -26.8487C-87.0651 -24.3784 -84.3218 -18.9535 -81.8447 -14.6352C-80.39 -12.3575 -78.8513 -10.5659 -78.4124 -10.7647C-77.3935 -8.49331 -78.9641 -9.8494 -78.7305 -8.25602C-77.8552 -4.90953 -73.4943 -1.41049 -73.7559 0.739998C-73.7868 1.0986 -74.5416 0.0875941 -74.9189 -0.43073C-73.3787 1.25832 -70.4088 8.7638 -70.0908 6.25508C-67.9918 11.9016 -64.3342 16.1599 -62.9132 20.7965C-60.0958 22.8373 -58.9456 30.2654 -56.5072 30.1208C-58.7735 30.7808 -53.4221 40.3207 -50.719 43.1805C-51.9127 42.3684 -49.8682 46.4497 -51.4198 45.5555C-49.423 49.3797 -47.2653 52.7189 -46.5297 51.4985C-45.3928 59.8496 -37.2815 64.7104 -38.4136 70.3362C-31.4908 81.181 -25.3538 91.3734 -19.6247 101.406C-21.8657 102.092 -25.6185 90.1643 -27.564 91.7007C-21.7477 101.017 -17.122 105.725 -12.6995 115.662C-11.7118 118.317 -14.3269 114.69 -15.1126 114.037C-14.1599 115.564 -13.2589 117.116 -12.4092 118.666C-12.0341 119.339 -11.6591 120.011 -11.2837 120.657C-12.4951 122.871 -13.6802 125.034 -14.8392 127.172C-16.4207 130.15 -17.8739 133.129 -19.0718 136.19C-19.2495 136.059 -18.9527 135.037 -18.6311 134.067C-19.4762 135.773 -21.07 137.828 -20.0485 138.125L-19.4074 136.339C-16.6095 134.378 -20.2429 144.533 -19.7144 145.233C-20.8068 140.935 -24.985 153.313 -25.8425 146.941C-26.2701 148.14 -26.6013 149.776 -25.8332 149.864C-26.9069 151.413 -27.5526 151.738 -27.3437 149.689C-30.1268 155.984 -27.9751 154.373 -30.9768 159.818C-31.409 159.556 -30.9815 158.356 -31.2001 157.507C-31.8365 160.755 -32.4729 164.003 -35.3826 168.398C-35.5049 167.986 -36.1507 168.31 -35.3616 166.936C-39.5539 174.929 -40.4205 181.712 -46.001 189.942C-46.5389 186.318 -48.2439 192.551 -50.1863 192.087L-52.232 197.033L-50.3905 195.598C-52.6545 199.669 -53.4085 203.966 -55.8654 207.188L-54.8931 203.765L-58.7498 211.609L-55.7434 207.626C-57.1432 212.248 -53.3688 208.352 -56.8283 213.534C-56.4008 212.335 -59.0922 217.605 -61.2439 219.216C-61.8158 221.541 -62.3884 223.918 -64.4548 226.735C-65.4108 227.234 -65.97 225.098 -66.6155 225.396C-66.2962 228.171 -71.4492 235.201 -71.3431 238.536C-71.2259 237.512 -72.0903 236.987 -72.4262 237.161L-72.2028 239.473C-73.6121 241.171 -73.9223 241.346 -74.4769 240.671C-77.7884 246.266 -71.3644 240.023 -75.9679 246.292C-75.78 245.705 -76.0903 245.88 -75.6371 244.681C-77.6566 247.806 -79.2165 251.067 -80.7235 254.225C-81.1203 255.066 -81.5426 255.906 -81.939 256.721C-82.4405 257.714 -82.9417 258.681 -83.4432 259.674C-84.4454 261.609 -85.4982 263.492 -86.7064 265.475L-85.7914 266.052C-85.8032 266.873 -86.8251 266.601 -88.2518 265.94C-87.3506 263.901 -85.1706 260.316 -87.4568 262.361C-88.1165 263.659 -88.7763 264.958 -89.4364 266.282C-86.1007 267.945 -82.7382 269.532 -79.5541 271.04C-77.7453 271.886 -76.9293 272.206 -75.7572 272.736L-72.4694 274.168C-68.0861 276.103 -63.806 278.087 -59.967 280.425L-61.4904 279.352C-58.9779 277.618 -55.634 284.077 -50.6257 285.354C-51.7996 284.953 -52.7623 285.914 -52.3246 285.792C-46.5553 289.439 -39.794 291.87 -30.3395 296.057L-31.801 296.036C-28.5796 298.519 -22.6971 301.424 -19.0636 303.785C-17.6021 303.806 -15.4915 305.067 -16.3149 303.465C-11.6885 308.122 -6.26272 310.687 -0.858546 312.97C1.84354 314.112 4.52071 315.202 7.06712 316.469C10.2245 318.053 13.1752 319.737 16.6018 322.222C17.0981 321.588 17.6198 320.98 18.1931 320.347C17.719 321.212 17.2395 322.462 16.9197 323.304C16.3318 323.167 16.1259 323.216 16.8383 323.61L17.042 323.716L20.291 317.12C21.2955 315.032 22.4838 312.638 23.0659 311.39C21.6535 311.523 21.8242 312.141 19.8241 313.908C20.0564 312.013 20.8368 309.46 22.0486 307.221C20.5755 311.585 23.7287 308.091 25.2617 306.702C24.7727 306.824 24.7585 306.028 24.3486 305.997C28.7344 302.392 22.6835 304.075 27.3804 298.449L27.7562 299.07C28.7669 296.546 29.2395 293.988 30.788 291.522C32.5634 291.112 29.978 294.357 30.8658 295.037C32.7385 291.422 32.4468 286.725 35.4073 284.151C34.9211 285.863 33.7357 288.051 33.2243 289.736C36.572 286.989 36.4269 286.372 38.0783 283.882L37.8955 284.11L41.8499 278.397L40.6253 279.738C39.9447 273.548 45.0433 270.313 46.2744 263.149C45.021 270.081 46.8673 264.722 47.9786 265.918C49.2032 264.576 50.9003 262.472 50.9135 263.344C51.1432 261.629 52.0052 260.539 52.8949 259.295C53.0785 259.015 53.2876 258.736 53.4972 258.432C53.6019 258.279 53.7071 258.101 53.7613 257.897C53.921 257.489 53.98 256.951 53.9944 255.951C54.3478 256.341 54.9146 254.374 55.3236 256.252C55.6453 255.282 55.5471 254.973 55.2911 254.944C55.0354 254.889 54.5958 255.139 54.4743 254.676C54.8908 252.45 56.0689 250.775 56.9543 249.839C57.5952 251.643 58.109 253.369 58.6808 254.633C59.2774 255.95 59.8803 256.83 61.2487 257.978C65.7435 264.66 67.9401 265.281 72.0815 271.572C72.5055 274.194 69.5058 270.561 69.5058 270.561C70.7055 274.527 72.2057 277.216 74.4685 280.377C73.732 279.879 73.7707 280.752 73.8033 282.06C75.3291 284.749 76.3534 283.071 77.5531 287.038C76.7378 286.667 75.5382 286.265 74.3738 285.197C76.4333 288.227 78.9068 291.007 81.0157 294.166C80.6896 295.443 78.8048 292.749 77.6899 291.81C79.9721 295.408 83.3765 301.227 85.1896 301.766L84.407 299.113C85.1571 300.457 83.7223 300.36 82.966 299.451C80.3636 296.721 81.0098 294.576 81.3747 294.171L82.8811 296.424C84.2432 292.648 77.5788 287.038 75.2637 282.158L78.198 283.2L74.1027 279.064C74.0702 277.756 74.7548 276.509 76.2616 278.736C75.4461 274.8 74.0179 276.037 73.5807 272.543C73.5865 272.132 73.7389 272.237 73.966 272.497L71.6765 269.412C72.4138 269.859 72.7457 268.171 73.509 270.387C71.5266 263.768 67.1242 261.371 67.3984 258.349L67.7767 258.79C65.3711 254.857 64.7107 254.412 64.37 254.92C64.0044 255.376 63.4348 255.753 61.4368 253.801C61.6508 251.393 61.5407 248.34 61.1065 244.641C60.7164 245.02 60.3508 245.476 60.0105 245.959C59.5384 244.9 58.5693 242.732 58.8623 241.967C57.7734 241.002 57.8675 241.594 58.0122 242.237C58.1821 242.906 58.3762 243.678 57.8374 243.696C57.6176 242.924 57.3719 242.176 57.0745 241.454C55.8473 242.975 54.3663 246.108 53.1548 248.322C51.9174 250.561 50.8437 252.11 49.7979 251.711C49.7268 253.095 50.5364 252.08 51.0049 251.6C51.4998 251.068 51.6796 251.045 50.7191 253.647C49.4437 253.167 48.518 255.129 47.956 256.762C47.3416 258.472 46.747 260.592 45.1855 262.185C44.5958 260.381 47.1809 257.161 44.0581 260.322C44.8817 263.694 39.6227 267.388 38.2921 270.754C39.8415 271.802 35.2134 277.994 32.8762 283.602C32.5008 282.956 26.5338 293.103 23.2362 297.723L23.0351 297.438C24.1625 299.301 21.0656 304.232 19.3944 308.106C18.4809 307.426 18.4681 306.528 19.1158 304.281L17.2193 307.767C17.2626 308.332 17.2028 308.921 17.0127 309.662C16.8493 310.326 16.7393 310.837 16.3675 311.73C16.1448 311.162 15.8958 310.646 15.5943 310.206C15.0932 311.173 14.7419 312.425 14.2074 313.93C13.4411 313.714 12.5221 313.418 11.5031 312.942C10.9936 312.704 10.4848 312.415 9.95078 312.099C9.3662 311.732 8.37505 311.102 7.61391 310.527C6.65125 311.488 10.6081 316.34 3.8761 313.654C3.98934 312.911 4.33994 311.711 6.12594 312.352C5.53916 312.139 3.90258 311.807 2.96602 310.948L6.06447 311.274C3.60454 309.341 4.16524 311.375 2.05508 310.088C2.58039 309.224 0.794384 308.583 1.49475 308.029C2.10718 308.243 3.19282 309.438 4.21734 309.53C1.85372 308.034 -0.834014 305.892 -1.43211 304.678C-1.49221 305.293 -2.09042 305.874 -3.95003 305.001C-8.63333 302.524 -4.9481 303.064 -7.40802 301.131C-8.86953 301.11 -11.4789 298.867 -12.2925 300.163C-13.6411 299.426 -13.5532 298.657 -13.8773 298.012C-16.6109 297.28 -25.1786 292.054 -23.2455 294.954L-22.6873 295.372C-22.6873 295.372 -22.9678 295.265 -23.1209 295.212C-31.721 292.242 -39.0619 285.52 -47.1901 281.839L-46.9274 281.407C-51.8734 279.361 -57.468 276.05 -61.3279 275.174C-62.7018 274.41 -64.1376 272.594 -63.2625 272.376C-67.0093 270.758 -67.6803 271.056 -72.4251 267.5C-68.4157 268.686 -73.2774 266.129 -68.445 268.942C-70.6552 267.474 -71.9225 266.43 -73.3462 265.564C-73.6514 265.38 -74.1601 265.09 -74.3638 264.985C-74.5674 264.879 -74.7971 264.799 -75.078 264.718C-75.6143 264.557 -76.3047 264.419 -77.43 264.197C-75.9659 264.039 -76.5439 263.21 -77.2548 262.712C-76.9401 262.229 -76.728 261.745 -76.6976 261.412C-77.2687 261.891 -77.8922 262.447 -78.5684 263.104L-78.5189 263.233C-78.5189 263.233 -78.672 263.179 -78.7229 263.153C-78.1653 261.827 -77.3518 260.531 -76.5916 259.388C-76.1877 259.83 -75.7313 260.195 -75.2481 260.484C-74.9892 260.308 -74.8071 260.131 -74.6254 259.98C-74.3906 259.701 -73.9184 258.965 -73.629 258.456C-72.9722 257.362 -72.392 256.242 -71.8886 255.121C-70.8563 252.879 -70.08 250.608 -69.3056 248.465C-67.7559 244.127 -66.1862 240.174 -62.7099 237.403C-62.3838 234.33 -66.2658 242.148 -66.2495 239.225C-63.6753 234.979 -59.0365 231.609 -58.2987 230.234C-54.219 224.728 -57.4581 223.476 -53.4747 217.532C-54.4564 218.031 -56.2769 218.005 -54.2316 213.084C-51.6575 208.838 -49.0689 208.953 -50.1375 211.938C-50.6657 213.007 -51.1075 213.411 -51.2595 213.281C-51.8453 214.786 -52.6175 216.775 -51.0842 215.361L-51.3028 214.511C-49.5833 212.638 -46.3681 206.606 -46.2415 208.506C-44.9593 204.934 -46.3425 206.607 -47.9656 208.917C-44.1471 203.74 -43.173 200.189 -39.5039 194.702C-40.3098 195.46 -41.394 195.958 -40.8937 195.041C-35.623 186.962 -39.8836 190.773 -36.9786 184.916C-34.3994 182.107 -35.6769 187.14 -33.2041 181.021C-30.7216 177.799 -31.3837 181.047 -31.7149 182.684C-29.8875 176.863 -25.6812 173.255 -23.8701 170.358L-24.9391 173.369C-24.298 171.583 -23.5349 170.234 -22.7972 168.86L-24.7349 169.858C-23.6616 168.335 -22.8982 166.961 -22.492 167.249C-22.2831 165.2 -24.9582 167.547 -24.1082 163.712C-22.3888 161.839 -21.0856 156.806 -19.2651 156.832C-23.4624 163.388 -17.419 156.858 -20.35 162.74C-19.9225 161.541 -19.1595 160.193 -18.0861 158.669C-17.8019 158.52 -17.9122 159.057 -18.0986 159.541C-13.2706 153.712 -18.0431 155.669 -14.3564 148.952C-14.0159 150.239 -11.9865 148.216 -11.559 147.017C-13.0598 149.74 -13.5934 147.604 -12.8603 144.767C-9.87959 140.784 -10.7634 139.822 -9.44904 137.584L-11.1509 140.022C-11.4655 138.709 -10.1786 136.599 -8.79976 133.439C-8.03164 133.527 -9.86837 136.424 -9.00864 135.488C-8.79976 133.439 -7.39056 131.741 -5.8513 129.916C-5.06886 129.004 -4.26039 128.067 -3.55267 127C-3.39587 126.797 -3.13286 126.339 -2.89621 125.932L-2.18556 124.66C-1.73717 123.795 -1.31406 122.903 -0.993518 122.01C-0.601563 121.503 -0.288725 121.148 -0.0290039 120.921C-0.0846129 119.433 1.81159 121.332 0.749489 118.496C-0.00354688 117.357 -0.604949 116.374 -1.10526 115.495C-1.35543 115.055 -1.58031 114.641 -1.77993 114.254C-1.90482 114.021 -2.00407 113.789 -2.12897 113.556C-2.52635 112.653 -2.77136 111.855 -2.99073 111.056C-3.4291 109.435 -3.89238 107.761 -5.75339 105.195C-6.0154 107.371 -5.60698 107.506 -8.68698 104.102L-3.24794 112.899L-7.84249 107.807C-6.44631 110.597 -4.1769 113.296 -3.5096 115.05C-5.83507 112.683 -5.40139 112.843 -5.63224 114.635C-5.92505 110.014 -10.4039 107.591 -11.5385 102.65L-8.77658 101.408C-10.93 94.196 -16.133 90.4028 -19.801 81.5025L-18.8693 84.4907C-20.5275 83.8771 -21.7184 79.2951 -23.5538 76.7298C-22.5252 76.5394 -23.0621 74.6339 -23.1181 73.1713C-23.7148 73.65 -26.2591 66.8688 -28.4411 67.017L-29.1984 62.5951C-32.2247 55.4478 -35.7976 56.0121 -38.8547 49.2235C-36.8501 50.714 -37.7513 47.3928 -34.7835 51.4617C-35.9057 49.2401 -36.7477 47.1507 -37.3931 47.4492C-37.4985 45.8577 -41.7506 41.9242 -41.9201 39.4341C-42.7816 38.7037 -43.8867 38.8674 -45.0814 36.337C-45.025 35.9788 -44.6422 36.1125 -44.6422 36.1125C-45.0814 36.337 -47.2321 32.5106 -47.1168 35.205C-47.7933 26.9374 -57.0516 16.213 -57.6666 9.0234C-60.4462 4.34167 -63.6986 -1.347 -65.9954 -5.71406C-65.587 -5.57997 -65.5305 -5.93821 -65.2097 -5.06166C-67.4504 -11.5565 -69.689 -7.45962 -72.2761 -14.8314C-72.5997 -19.0932 -69.6302 -11.5621 -70.1843 -14.0577C-68.9875 -15.2459 -70.0365 -17.21 -71.5165 -19.5137C-71.8682 -20.0316 -71.9953 -20.1104 -72.2465 -20.473C-72.4729 -20.784 -72.7249 -21.0954 -72.9252 -21.4316C-73.3259 -22.1042 -73.5977 -22.8262 -73.3618 -23.1818C-73.2079 -23.1796 -73.0797 -23.1778 -72.9511 -23.2016L-73.0556 -23.0748L-72.7526 -22.7371C-72.7526 -22.7371 -72.6739 -22.8642 -72.6728 -22.9411C-71.5416 -23.1301 -71.3035 -23.6396 -70.4702 -24.5252C-70.3376 -24.8311 -68.913 -25.8108 -67.7481 -26.5635C-66.5317 -27.3411 -65.2642 -28.0923 -63.8701 -28.7391C-63.8701 -28.7391 -64.0299 -28.3311 -63.6716 -28.2746C-60.4664 -31.8191 -53.2238 -36.1263 -47.8685 -39.3835C-49.0004 -37.3481 -50.1015 -37.4664 -48.418 -36.8268C-46.0121 -38.2798 -50.1146 -38.3386 -45.3032 -41.2189C-43.3516 -41.3961 -39.4864 -42.6742 -38.3469 -41.6577L-43.0243 -39.1858C-39.7731 -38.7802 -36.9521 -42.3558 -34.348 -43.3187L-34.3093 -42.4461C-27.2264 -46.3454 -28.0205 -48.2032 -20.2208 -52.0152L-21.2959 -52.1589C-17.9569 -56.0861 -17.2322 -52.9726 -13.6691 -56.4349L-11.4802 -55.2752C-8.91459 -57.1362 -2.58738 -61.9951 2.27565 -64.9003C0.10707 -62.1103 -5.40801 -58.4451 -8.62601 -55.7984C-5.83625 -57.1946 0.72824 -60.7166 1.7261 -62.3436C0.689457 -61.5891 -0.48091 -60.4518 -1.71606 -60.1618C0.97048 -63.3033 5.09106 -66.2961 10.6189 -69.0635C10.8822 -67.7518 12.5525 -67.9843 14.899 -68.8739C15.3115 -69.0219 15.7499 -69.1951 16.1884 -69.3684C16.5239 -69.5174 16.8851 -69.6661 17.2463 -69.8148C17.969 -70.1379 18.7173 -70.4605 19.388 -70.733C20.0817 -69.0305 20.5702 -67.3308 19.8644 -66.3921C19.9156 -66.3913 20.1665 -66.003 20.3424 -65.7441L20.8943 -64.8898L21.9719 -63.1305C22.6729 -61.9407 23.3226 -60.7517 23.946 -59.5118C25.2187 -57.0572 26.3622 -54.5275 27.5049 -51.9466C29.7899 -46.759 32.0713 -41.3151 35.0676 -35.6557C35.7353 -41.083 36.8414 -32.3733 39.2825 -34.4925C40.8102 -31.9317 41.2827 -30.8991 41.2266 -30.5665L43.6382 -21.6842C43.7846 -19.374 41.7464 -23.8912 41.2255 -23.3344C43.9618 -17.4223 41.2847 -20.3074 42.5065 -16.084C43.1149 -17.3832 44.9756 -14.7919 46.2589 -11.2857L45.1812 -16.6098C46.5909 -14.7688 47.3656 -13.3472 47.8351 -12.1094C48.0823 -11.4648 48.1783 -11.0018 48.3735 -10.3065C48.6426 -9.40506 48.9126 -8.55489 49.1572 -7.73072C49.6707 -5.97945 50.2596 -4.12452 51.2525 -1.82781C52.2454 0.468894 53.7188 3.2341 55.7523 6.28945C54.844 5.2506 53.9115 4.10882 52.9035 2.86338C54.6568 5.78647 57.3517 11.0055 60.2492 16.407C64.8118 7.62467 69.8536 -2.38183 70.8223 -7.34322C71.7069 -8.22813 73.3923 -9.51191 71.779 -6.0985C72.3845 -7.19259 73.0161 -8.31195 73.648 -9.45695C74.0169 -10.1441 74.3601 -10.8316 74.729 -11.5188C75.3891 -12.8429 76.0496 -14.1926 76.6588 -15.5431C77.9293 -18.2946 79.1235 -21.0986 80.317 -23.8512C82.7037 -29.3308 85.0852 -34.4515 87.8535 -37.9252L88.1197 -36.8187C88.9425 -38.7559 88.6115 -40.7098 90.5371 -42.6569C90.7386 -42.3975 90.8034 -41.5503 91.3027 -42.3894C91.6005 -43.4879 92.7927 -47.9332 94.5173 -50.1653L94.1479 -47.6573C97.214 -52.2296 98.7838 -56.1822 100.07 -60.0363C100.687 -61.9508 101.304 -63.8141 101.922 -65.7544C102.064 -66.7269 102.389 -67.9788 102.946 -69.2531C103.269 -68.5048 103.701 -68.2165 104.056 -67.9806C104.433 -67.4366 105.012 -66.6333 105.564 -65.8047C105.791 -65.5194 105.764 -65.4172 106.093 -65.1304C106.906 -64.5801 107.668 -64.0819 108.303 -63.6625L108.018 -63.4614C119.108 -57.0962 127.973 -54.7123 138.777 -49.813C144.055 -44.1465 160.135 -36.9917 169.834 -30.1335C168.441 -31.3588 170.931 -31.5283 172.894 -30.7307C175.101 -29.0065 180.376 -28.4436 178.993 -26.8221L178.154 -27.3214C179.012 -24.5394 184.262 -22.2842 188.155 -20.0998L190.107 -22.1235C190.385 -21.8374 190.663 -21.5513 190.941 -21.2652L191.371 -20.8487C191.371 -20.8487 191.471 -20.6678 191.521 -20.5901C191.697 -20.2799 191.872 -20.0209 192.023 -19.8136C192.35 -19.3729 192.654 -19.0608 193.06 -18.7729C192.614 -18.0868 192.374 -17.4491 192.08 -16.6327C190.996 -14.3401 189.938 -12.0728 188.933 -9.98425C186.82 -5.68042 184.794 -2.11906 182.517 -0.689899C181.759 2.09462 180.099 5.14832 179.367 7.90757L178.174 7.0698C174.129 13.7054 172.107 17.036 167.803 25.6425L167.835 23.4374C165.151 28.1434 168.233 31.4446 165.913 35.8737L163.293 36.1439C158.788 44.4655 152.526 51.9412 149.779 61.083C149.578 60.798 149.15 60.2533 149.811 58.8779C147.626 62.7704 140.269 73.2823 143.654 73.3051C141.896 72.4849 138.814 81.7758 137.102 86.6752L136.224 85.3034C135.773 89.9645 136.152 90.329 133.688 95.8588C132.851 97.0265 132.09 96.4001 133.317 94.9302C130.39 98.7351 132.722 98.8198 129.295 103.515L129.534 101.185C127.088 105.433 127.705 105.313 127.356 108.181C126.39 111.167 122.6 116.139 121.113 116.169C121.187 116.376 121.234 116.658 121.254 117.043C121.196 117.53 121.085 118.092 120.923 118.68C120.598 119.881 120.117 121.233 119.353 122.658C119.577 123.097 119.776 123.562 119.974 124.052C119.71 124.587 118.727 123.342 118.199 122.642C118.744 123.957 119.315 125.248 119.888 126.436C120.188 127.03 120.487 127.598 120.761 128.167C120.986 128.554 121.186 128.942 121.411 129.33C122.212 130.726 123.041 131.918 123.82 133.057C125.377 135.311 126.734 137.305 127.386 140.136C127.022 140.464 126.964 140.899 127.06 141.362C124.143 135.55 121.825 130.849 122.153 131.238C120.991 131.837 123.153 136.613 119.63 133.715C122.429 137.013 127.609 142.447 129.386 147.294C129.382 147.576 129.378 147.832 129.297 148.113L128.919 147.697C129.339 148.806 129.916 149.686 130.571 150.491C131.113 152.037 131.458 153.042 132.13 154.437C131.423 155.478 134.332 160.059 135.478 162.435C136.67 161.58 138.009 164.754 137.622 161.337C137.719 161.749 137.243 160.973 136.393 159.448C136.167 159.111 135.941 158.723 135.765 158.515C135.816 158.542 135.892 158.569 135.968 158.621C135.17 157.096 134.121 155.132 132.922 152.858C134.516 154.369 136.032 156.006 136.63 158.964C138.056 159.728 139.581 160.622 140.369 161.172C140.207 165.273 142.369 171.92 141.707 173.347C146.047 180.103 150.728 189.889 155.426 193.137C156.759 195.002 155.926 195.811 155.938 196.76C155.107 195.722 154.435 194.302 153.749 193.857C156.439 197.588 160.093 205.719 162.271 205.827C164.116 211.316 159.249 203.758 163.1 210.609L162.11 209.928C166.432 225.095 177.823 230.157 182.169 247.222C181.852 246.064 181.681 245.471 181.84 245.115C183.549 249.345 185.541 253.503 187.636 257.636L189.233 260.736L190.656 263.398L192.907 267.38L188.331 269.93C186.109 271.129 183.628 272.402 181.278 273.548C176.5 275.89 171.674 278.026 166.726 279.725C161.593 281.729 161.6 283.062 159.027 285.411L157.27 284.565L152.978 288.76C146.343 293.615 138.727 291.762 130.679 298.622L132.341 298.954C128.96 300.444 122.204 304.809 122.198 303.45C121.937 303.78 121.612 304.955 120.071 305.138L119.593 304.464L112.13 309.82C105.604 312.496 111.64 306.453 102.446 310.963C99.1855 312.968 93.8304 317.995 95.3714 317.837C96.7659 317.165 99.1091 316.506 99.5867 317.18L96.6607 319.138C97.1902 321.557 95.9106 324.949 104.28 322.556L108.928 318.545L111.157 318.705L106.712 321.052C109.743 320.736 110.921 319.061 112.43 317.543C113.143 317.887 114.067 317.875 115.225 317.558L119.421 312.874C120.466 313.376 117.919 315.724 121.656 314.393C123.611 312.216 118.358 313.73 122.089 311.04C125.12 310.698 124.796 311.873 127.343 309.525C128.03 309.868 127.585 310.529 126.521 311.385C128.832 309.367 133.423 307.535 134.219 305.7C137.478 305.541 143.034 300.825 143.799 302.965C144.376 302.05 147.677 298.994 150.081 297.669C146.859 302.342 159.301 293.159 159.435 296.341C161.618 292.5 170.871 289.299 176.086 285.117C175.85 285.447 175.379 286.132 174.813 286.278C178.194 284.788 179.473 284.96 181.817 284.275C181.333 282.268 186.249 279.261 188.439 276.728C193.342 276.413 187.058 280.068 189.172 281.098C188.694 280.425 190.276 279.165 191.703 278.031C191.937 277.804 192.688 277.327 193.206 276.95C193.75 276.573 194.217 276.221 194.554 275.944C195.204 275.363 195.311 275.031 194.567 275.046C197.425 274.267 198.74 273.772 199.719 273.479C200.749 273.186 201.468 273.119 203.908 272.821C203.2 272.169 203.515 271.661 204.368 271.135C203.29 269.401 202.508 266.748 200.058 264.097C198.905 260.465 199.122 259.621 199.133 258.878C199.135 258.698 199.138 258.493 199.039 258.261C199.016 258.107 198.967 257.927 198.868 257.694C198.644 257.23 198.217 256.557 197.439 255.417C196.938 252.743 199.959 256.684 199.959 256.684L200.116 256.481ZM136.85 141.836C137.4 142.818 137.85 143.671 138.15 144.214C137.875 143.722 137.5 143.05 136.824 141.861L136.85 141.836ZM131.835 132.07C132.382 133.283 133.13 134.781 133.954 136.357C133.689 136.918 133.05 136.78 132.551 135.799C133.11 136.191 132.196 133.742 131.835 132.095L131.835 132.07ZM133.499 157.329C132.52 155.879 132.504 155.212 132.662 154.881C133.062 155.604 133.538 156.432 134.189 157.518C134.266 157.519 134.367 157.598 134.444 157.625C134.111 157.62 133.804 157.538 133.499 157.329Z" fill="#3B2335"/>
<path d="M136.599 159.246C136.75 159.453 136.851 159.557 137.027 159.842C136.981 159.457 136.909 159.122 136.837 158.762C136.608 158.656 136.353 158.524 136.149 158.419C136.299 158.703 136.449 158.987 136.599 159.246Z" fill="#3B2335"/>
<path d="M195.127 3.49174L194.796 3.33311L194.602 4.33053L195.127 3.49174Z" fill="#3B2335"/>
<path d="M25.3664 306.55C25.521 306.501 25.7536 306.376 26.0664 306.021C25.9638 306.02 25.6785 306.247 25.3664 306.55Z" fill="#3B2335"/>
<path d="M38.1834 283.755L40.4062 280.761C39.3879 282.028 38.7073 282.993 38.1834 283.755Z" fill="#3B2335"/>
<path d="M48.4322 266.437C48.3344 266.102 48.2084 265.946 48.0824 265.791L48.0821 265.816L48.4322 266.437Z" fill="#3B2335"/>
<path d="M81.2709 299.709L81.6686 300.587C81.6686 300.587 81.8488 300.538 81.925 300.591L81.2709 299.709Z" fill="#3B2335"/>
<path d="M81.9254 300.59L82.5539 301.471C82.3294 301.032 82.1298 300.645 81.9254 300.59Z" fill="#3B2335"/>
<path d="M83.911 303.337L82.5529 301.471C82.902 302.169 83.2997 303.046 83.911 303.337Z" fill="#3B2335"/>
<path d="M69.793 275.668L69.1776 275.659C69.356 275.739 69.5611 275.742 69.793 275.668Z" fill="#3B2335"/>
<path d="M65.9697 268.536C66.7392 270.316 67.183 273.349 68.6895 275.602L69.1766 275.609C67.9049 274.872 67.5934 269.764 65.9697 268.536Z" fill="#3B2335"/>
<path d="M53.157 244.603L57.2008 238.019L57.3502 238.329L57.2037 237.814C56.6129 237.882 55.8151 238.076 57.2431 235.07C57.3434 235.226 57.4683 235.458 57.6185 235.717C57.4701 235.33 57.3471 234.969 57.2482 234.711C54.6356 238.059 54.9679 238.141 55.3217 238.505C55.6488 238.946 55.8143 239.922 53.131 244.628L53.157 244.603Z" fill="#3B2335"/>
<path d="M41.0655 265.075C42.5748 261.762 40.3267 264.731 40.152 264.395C39.4783 266.668 39.342 267.23 41.0655 265.075Z" fill="#3B2335"/>
</g>
</g>
</g>
<defs>
<filter id="filter0_d_335_1309" x="-99.8965" y="-84.3135" width="326.725" height="1170.76" filterUnits="userSpaceOnUse" color-interpolation-filters="sRGB">
<feFlood flood-opacity="0" result="BackgroundImageFix"/>
<feColorMatrix in="SourceAlpha" type="matrix" values="0 0 0 0 0 0 0 0 0 0 0 0 0 0 0 0 0 0 127 0" result="hardAlpha"/>
<feOffset dx="13" dy="29"/>
<feGaussianBlur stdDeviation="2"/>
<feComposite in2="hardAlpha" operator="out"/>
<feColorMatrix type="matrix" values="0 0 0 0 0 0 0 0 0 0 0 0 0 0 0 0 0 0 0.25 0"/>
<feBlend mode="normal" in2="BackgroundImageFix" result="effect1_dropShadow_335_1309"/>
<feBlend mode="normal" in="SourceGraphic" in2="effect1_dropShadow_335_1309" result="shape"/>
</filter>
<radialGradient id="paint0_radial_335_1309" cx="0" cy="0" r="1" gradientUnits="userSpaceOnUse" gradientTransform="translate(1638 -176.5) rotate(118.351) scale(1427.75 2538.23)">
<stop stop-color="#5F8EFF"/>
<stop offset="1" stop-color="#2D99F2" stop-opacity="0"/>
</radialGradient>
<radialGradient id="paint1_radial_335_1309" cx="0" cy="0" r="1" gradientUnits="userSpaceOnUse" gradientTransform="translate(1638 -176.5) rotate(118.351) scale(1427.75 2538.23)">
<stop stop-color="#B3C9FF"/>
<stop offset="1" stop-color="#2D99F2" stop-opacity="0"/>
</radialGradient>
<radialGradient id="paint2_radial_335_1309" cx="0" cy="0" r="1" gradientUnits="userSpaceOnUse" gradientTransform="translate(631.5 1446) rotate(-69.2895) scale(868.097 2797.84)">
<stop stop-color="#A7C9D6"/>
<stop offset="1" stop-color="#EBF0F2" stop-opacity="0"/>
</radialGradient>
<clipPath id="clip0_335_1309">
<rect width="1920" height="1080" fill="white"/>
</clipPath>
<clipPath id="clip1_335_1309">
<rect width="1137.86" height="297.434" fill="white" transform="translate(210.711 -81.7363) rotate(90.8213)"/>
</clipPath>
</defs>
</svg>
