<svg width="1920" height="1080" viewBox="0 0 1920 1080" fill="none" xmlns="http://www.w3.org/2000/svg">
<rect width="1920" height="1080" fill="#C8E5DC"/>
<rect width="1920" height="1080" fill="url(#paint0_radial_362_9189)" fill-opacity="0.2"/>
<rect width="1920" height="1080" fill="url(#paint1_radial_362_9189)" fill-opacity="0.2"/>
<g filter="url(#filter0_d_362_9189)">
<path d="M592 694C592 688.477 596.477 684 602 684H1815C1820.52 684 1825 688.477 1825 694V946.904C1825 952.061 1821.08 956.372 1815.94 956.859L1209.44 1014.41C1208.82 1014.47 1208.18 1014.47 1207.56 1014.41L601.055 956.859C595.922 956.372 592 952.061 592 946.904V694Z" fill="#262654"/>
</g>
<path d="M781.6 785.05V889H759.85V852.85C759.85 842.45 760.8 832.2 762.7 822.1L748.3 862.6H730.9L716.5 822.1C718.4 831.4 719.35 841.65 719.35 852.85V889H697.75V785.05H720.85L739.6 838.15L758.35 785.05H781.6ZM839.562 889L835.212 865H814.662L810.612 889H789.162L809.562 785.05H840.912L861.012 889H839.562ZM817.812 845.95H831.912L824.712 805.75L817.812 845.95ZM891.051 851.5V889H868.551V785.05H902.451C910.651 785.05 917.051 787 921.651 790.9C926.251 794.8 928.551 800.5 928.551 808V827.2C928.551 839.2 924.451 846.7 916.251 849.7L932.601 889H907.851L893.901 851.5H891.051ZM891.051 804.25V833.65H899.901C902.201 833.65 903.801 833.15 904.701 832.15C905.601 831.15 906.051 829.4 906.051 826.9V809.95C906.051 807.75 905.551 806.25 904.551 805.45C903.551 804.65 902.001 804.25 899.901 804.25H891.051ZM963.414 889H940.914V785.05H963.414V831.85L980.514 785.05H1004.51L985.464 835.3L1006.31 889H981.264L963.414 839.35V889ZM1013.86 785.05H1066.51V804.55H1036.36V826.6H1062.46V846.1H1036.36V869.5H1066.51V889H1013.86V785.05ZM1131.3 785.05V804.55H1112.55V889H1089.75V804.55H1071V785.05H1131.3ZM1189.15 851.5V889H1166.65V785.05H1200.55C1208.75 785.05 1215.15 787 1219.75 790.9C1224.35 794.8 1226.65 800.5 1226.65 808V827.2C1226.65 839.2 1222.55 846.7 1214.35 849.7L1230.7 889H1205.95L1192 851.5H1189.15ZM1189.15 804.25V833.65H1198C1200.3 833.65 1201.9 833.15 1202.8 832.15C1203.7 831.15 1204.15 829.4 1204.15 826.9V809.95C1204.15 807.75 1203.65 806.25 1202.65 805.45C1201.65 804.65 1200.1 804.25 1198 804.25H1189.15ZM1239.01 785.05H1291.66V804.55H1261.51V826.6H1287.61V846.1H1261.51V869.5H1291.66V889H1239.01V785.05ZM1298.39 809.35C1298.39 801.35 1301.09 795.2 1306.49 790.9C1311.89 786.5 1319.64 784.3 1329.74 784.3C1339.94 784.3 1347.54 785.35 1352.54 787.45V809.05C1346.44 806.45 1339.49 805.15 1331.69 805.15C1327.69 805.15 1324.99 805.8 1323.59 807.1C1322.19 808.3 1321.49 810.05 1321.49 812.35V814.6C1321.49 817.4 1321.94 819.5 1322.84 820.9C1323.84 822.2 1325.94 823.7 1329.14 825.4L1346.24 835C1354.44 839.5 1358.54 846.25 1358.54 855.25V864.55C1358.54 872.65 1355.54 878.9 1349.54 883.3C1343.54 887.6 1335.09 889.75 1324.19 889.75C1313.39 889.75 1305.24 888.6 1299.74 886.3V864.55C1306.54 867.45 1314.24 868.9 1322.84 868.9C1331.44 868.9 1335.74 866.45 1335.74 861.55V859.3C1335.74 857 1335.24 855.3 1334.24 854.2C1333.34 853 1331.59 851.7 1328.99 850.3L1312.94 841.6C1303.24 836.2 1298.39 828.6 1298.39 818.8V809.35ZM1368.06 785.05H1420.71V804.55H1390.56V826.6H1416.66V846.1H1390.56V869.5H1420.71V889H1368.06V785.05ZM1475.6 889L1471.25 865H1450.7L1446.65 889H1425.2L1445.6 785.05H1476.95L1497.05 889H1475.6ZM1453.85 845.95H1467.95L1460.75 805.75L1453.85 845.95ZM1527.09 851.5V889H1504.59V785.05H1538.49C1546.69 785.05 1553.09 787 1557.69 790.9C1562.29 794.8 1564.59 800.5 1564.59 808V827.2C1564.59 839.2 1560.49 846.7 1552.29 849.7L1568.64 889H1543.89L1529.94 851.5H1527.09ZM1527.09 804.25V833.65H1535.94C1538.24 833.65 1539.84 833.15 1540.74 832.15C1541.64 831.15 1542.09 829.4 1542.09 826.9V809.95C1542.09 807.75 1541.59 806.25 1540.59 805.45C1539.59 804.65 1538.04 804.25 1535.94 804.25H1527.09ZM1575.45 809.65C1575.45 801.65 1578.2 795.45 1583.7 791.05C1589.3 786.55 1597.7 784.3 1608.9 784.3C1616.3 784.3 1622.6 785 1627.8 786.4V807.1C1622.2 805.4 1616.65 804.55 1611.15 804.55C1605.75 804.55 1602.25 805.2 1600.65 806.5C1599.05 807.7 1598.25 809.5 1598.25 811.9V862.3C1598.25 867.1 1602 869.5 1609.5 869.5C1617.1 869.5 1623.35 868.75 1628.25 867.25V887.5C1622.85 889 1616.3 889.75 1608.6 889.75C1597.4 889.75 1589.05 887.55 1583.55 883.15C1578.15 878.75 1575.45 872.55 1575.45 864.55V809.65ZM1682.27 785.05H1705.07V889H1682.27V847.9H1661.57V889H1638.77V785.05H1661.57V827.8H1682.27V785.05Z" fill="#E6E8E6"/>
<defs>
<filter id="filter0_d_362_9189" x="592" y="684" width="1280" height="365.455" filterUnits="userSpaceOnUse" color-interpolation-filters="sRGB">
<feFlood flood-opacity="0" result="BackgroundImageFix"/>
<feColorMatrix in="SourceAlpha" type="matrix" values="0 0 0 0 0 0 0 0 0 0 0 0 0 0 0 0 0 0 127 0" result="hardAlpha"/>
<feOffset dx="43" dy="31"/>
<feGaussianBlur stdDeviation="2"/>
<feComposite in2="hardAlpha" operator="out"/>
<feColorMatrix type="matrix" values="0 0 0 0 0 0 0 0 0 0 0 0 0 0 0 0 0 0 0.25 0"/>
<feBlend mode="normal" in2="BackgroundImageFix" result="effect1_dropShadow_362_9189"/>
<feBlend mode="normal" in="SourceGraphic" in2="effect1_dropShadow_362_9189" result="shape"/>
</filter>
<radialGradient id="paint0_radial_362_9189" cx="0" cy="0" r="1" gradientUnits="userSpaceOnUse" gradientTransform="translate(1638 -176.5) rotate(118.351) scale(1427.75 2538.23)">
<stop stop-color="#5F8EFF"/>
<stop offset="1" stop-color="#2D99F2" stop-opacity="0"/>
</radialGradient>
<radialGradient id="paint1_radial_362_9189" cx="0" cy="0" r="1" gradientUnits="userSpaceOnUse" gradientTransform="translate(1638 -176.5) rotate(118.351) scale(1427.75 2538.23)">
<stop stop-color="#B3C9FF"/>
<stop offset="1" stop-color="#2D99F2" stop-opacity="0"/>
</radialGradient>
</defs>
</svg>
