<svg width="211" height="1056" viewBox="0 0 211 1056" fill="none" xmlns="http://www.w3.org/2000/svg">
<g clip-path="url(#clip0_335_1313)">
<g filter="url(#filter0_d_335_1313)">
<path d="M86.0171 1049.38L186.564 998.166L112.207 852.202L190.718 708.403L91.6795 654.359L50.1723 730.367L10.8608 653.2L-89.686 704.384L-15.3289 850.374L-93.8397 994.147L5.19834 1048.22L46.7059 972.182L86.0171 1049.38Z" fill="#304780"/>
<path d="M82.969 1050.92C83.706 1051.39 84.4104 1050.56 83.2819 1048.77L81.0846 1048.2L82.969 1050.92Z" fill="#3B2335"/>
<path d="M79.3497 1036.84C77.504 1034.99 74.9151 1033.11 74.2433 1035.25C76.8127 1036.7 76.4673 1037.54 79.3953 1039.02C80.5238 1040.81 80.5757 1042.55 79.8582 1042.52C80.5951 1042.99 81.0192 1045.61 82.4733 1046.14C82.3889 1043.09 80.8689 1039.99 78.2412 1037.24C78.2281 1036.36 78.9651 1036.84 79.3237 1036.87L79.3497 1036.84Z" fill="#3B2335"/>
<path d="M62.7852 1013.39C63.187 1013.99 63.5907 1014.46 64.021 1014.85C63.6947 1014.36 63.368 1013.89 63.0677 1013.37C62.9651 1013.37 62.8878 1013.4 62.7856 1013.37L62.7852 1013.39Z" fill="#3B2335"/>
<path d="M6.34158 1038.26L6.84198 1037.34C6.82149 1036.98 6.74971 1036.62 6.65229 1036.26L6.34158 1038.26Z" fill="#3B2335"/>
<path d="M26.8132 1000.24C26.2883 1001.08 27.4029 1002.04 27.7783 1002.69C27.5329 1001.91 27.6208 1001.15 27.9399 1000.36C27.7114 1000.2 27.3528 1000.17 26.8385 1000.26L26.8132 1000.24Z" fill="#3B2335"/>
<path d="M63.6134 1002.12L64.343 1003.11C64.1415 1002.85 63.8401 1002.41 63.6134 1002.12Z" fill="#3B2335"/>
<path d="M133.701 1032.67C133.701 1032.67 133.601 1032.52 133.576 1032.44C133.419 1032.69 133.391 1032.82 133.701 1032.67Z" fill="#3B2335"/>
<path d="M85.8426 1049.04L86.4378 1048.66C86.3906 1048.38 86.3173 1048.12 86.1928 1047.87L85.8426 1049.04Z" fill="#3B2335"/>
<path d="M27.9138 699.838C27.1803 695.545 32.4545 705.109 30.9024 698.881C30.6607 699.647 26.3185 694.84 27.9138 699.838Z" fill="#3B2335"/>
<path d="M62.4414 1012.31C62.1668 1011.8 61.8921 1011.28 61.6177 1010.74C61.9404 1011.49 62.1902 1011.95 62.4414 1012.31Z" fill="#3B2335"/>
<path d="M30.9024 698.881L30.7321 698.238C30.8054 698.495 30.8288 698.649 30.9024 698.881Z" fill="#3B2335"/>
<path d="M169.415 951.118C169.402 952.015 169.264 952.68 169.026 953.215C169.681 952.25 172.461 956.932 169.415 951.118Z" fill="#3B2335"/>
<path d="M63.5089 1012.99C63.0987 1012.99 62.7939 1012.78 62.4676 1012.29C62.6932 1012.65 62.8932 1013.01 63.0935 1013.35C63.3243 1013.35 63.5305 1013.28 63.5089 1012.99Z" fill="#3B2335"/>
<path d="M189.906 722.139L189.4 723.414C189.689 722.982 189.875 722.523 189.906 722.139Z" fill="#3B2335"/>
<path d="M189.66 986.208C187.141 981.196 186.809 984.705 185.304 984.145C181.795 978.427 185.147 980.758 184.977 978.293C182.642 974.797 179.62 972.728 178.275 969.939C178.46 969.583 178.289 968.99 178.949 969.461C175.61 966.208 172.935 957.809 168.911 954.084C168.891 953.673 168.921 953.417 169.025 953.265C168.547 954.438 167.744 954.991 167.075 955.16C165.901 952.938 163.895 951.55 164.556 950.149C165.229 951.544 165.718 951.422 166.403 951.894L164.741 949.793C165.244 946.876 166.93 952.722 168.093 952.123C165.256 947.825 161.22 943.151 159.889 939.414C161.065 937.892 164.597 947.329 163.571 941.954L165.746 947.678C166.079 942.298 167.262 951.06 167.925 945.915C164.748 938.56 163.059 938.331 159.907 931.002C158.231 929.85 158.89 932.193 157.214 931.015C150.5 921.686 157.049 921.062 151.216 914.669C149.21 913.281 146.847 913.53 145.187 907.71L147.866 908.62C144.53 901.622 143.34 905.965 140.836 898.133C142.182 899.075 144.173 903.259 143.856 902.126C142.857 896.726 141.178 899.318 139.332 895.726L140.508 894.179C136.508 886.941 131.282 879.428 126.832 871.415C127.521 871.63 128.71 872.775 128.228 870.639C126.248 867.405 124.4 863.917 122.656 860.353C121.784 858.571 120.938 856.738 120.118 854.931L119.497 853.562C119.397 853.33 119.398 853.253 119.349 853.099C119.276 852.841 119.228 852.584 119.18 852.353C119.389 852.125 119.597 851.897 119.779 851.72L119.909 851.594C119.909 851.594 119.961 851.594 120.145 851.289L120.983 850.019C122.11 848.343 123.211 846.691 124.285 845.091L124.99 840.639C125.49 839.774 126.471 839.352 126.199 840.425C128.788 836.898 125.464 839.774 125.956 837.652C127.04 835.437 128.274 835.198 127.918 836.808C130.459 829.484 135.955 816.381 141.226 810.071L140.87 811.656C144.407 806.449 141.545 803.972 145.584 799.516L145.286 800.615C152.377 788.971 158.397 775.106 165.36 767.076C164.4 764.292 172.678 755.717 170.427 753.479C175.465 747.371 174.869 749.593 181.001 740.449C182.524 737.957 181.428 735.711 182.886 732.397L184.312 733.085L185.206 727.994L188.124 726.6L189.4 723.438C188.665 724.581 187.394 725.615 187.092 725.226C187.571 723.976 188.257 722.678 189.018 721.432C189.412 720.822 189.805 720.212 190.224 719.629C190.695 718.994 191.139 718.385 191.558 717.801C193.967 714.348 196.37 711.305 196.911 711.159L199.371 705.885L191.831 702.315L188.24 700.622L186.482 699.802C185.794 699.484 185.666 699.457 185.233 699.271C185.594 699.097 185.877 699.024 187.331 699.609C188.631 700.141 190.238 700.779 191.665 701.364C188.707 700.193 187.306 699.557 186.518 699.059C185.959 698.692 186.039 698.488 186.017 698.231C186.024 697.744 186.082 697.257 183.042 696.444C183.596 697.145 182.213 697.048 181.927 697.275C179.704 694.96 173.596 691.642 168.882 689.522L170.274 689.029C162.238 684.324 152.835 680.085 143.674 675.081C146.72 677.331 145.061 678.563 142.284 677.267L142.005 675.211C139.775 675.179 144.514 677.299 140.346 676.47C137.016 674.422 138.952 673.552 141.174 674.148L136.737 672.392C136.745 671.828 137.844 672.126 138.389 671.697C136.183 671.666 132.003 666.297 128.692 666.532L128.7 665.968C119.539 660.964 115.127 659.208 107.619 655.202C106.782 656.395 104.013 654.509 101.246 654.316C97.4841 651.979 93.5701 649.513 89.4267 646.94C87.7999 649.507 86.0675 652.277 84.2802 655.304C83.4912 656.677 82.6765 658.05 81.8614 659.449C81.3354 660.365 80.8093 661.28 80.3082 662.248C78.4161 667.222 80.6396 664.176 80.2446 666.684C78.915 666.408 75.4089 673.051 76.4391 669.168C72.2977 677.187 71.1372 679.427 66.6009 689.954C67.6643 689.123 68.5522 688.007 68.5914 688.854C67.7946 690.766 65.8429 692.738 65.4407 692.168L65.5767 691.632C63.3607 697.729 58.9912 703.77 54.8306 709.558C53.8364 710.929 52.8679 712.3 51.9253 713.645C51.5883 713.897 51.355 714.073 51.1729 714.25C50.8085 714.629 50.7249 715.09 50.4662 717.035L50.523 716.651L50.2497 717.827C49.8636 717.924 49.3288 717.66 48.619 717.086C48.1982 716.028 48.5308 716.084 48.8143 715.986C49.1487 715.914 49.3846 715.558 49.4224 714.712C49.1396 714.759 48.8594 714.627 48.5803 714.418C48.4536 714.314 48.3016 714.183 48.2012 714.028C48.1258 713.924 48.125 713.976 47.9749 713.717L47.5244 712.941C46.3743 710.873 45.4283 708.885 44.5328 706.948C42.7418 703.076 41.179 699.386 38.3877 695.525C38.5317 687.269 26.4315 672.631 24.1625 662.751L23.6108 663.666C21.6626 661.818 22.6787 660.704 22.0118 658.925C21.4909 659.481 22.5355 661.753 21.3725 660.582L19.9968 658.152C19.2728 656.782 18.523 655.412 17.7989 654.043C16.3266 651.201 14.8293 648.307 13.3321 645.413C9.89651 647.133 6.43498 648.879 2.94778 650.624L-1.08118 652.592L-4.20499 654.035C-8.36141 655.95 -12.5944 657.839 -16.827 659.701C-25.2922 663.427 -33.8332 667.074 -42.0947 670.905C-49.4017 674.34 -44.0313 677.187 -54.0715 679.864L-52.2615 677.043C-58.5803 681.312 -65.4532 684.881 -72.3246 688.347C-75.7605 690.093 -79.1961 691.813 -82.606 693.534C-84.906 694.758 -87.18 695.956 -89.454 697.155C-92.4001 698.728 -95.2438 700.303 -97.9584 701.828C-96.9578 703.587 -95.9564 705.294 -94.9811 707.026C-96.1652 705.547 -96.8297 705.384 -98.1017 702.878C-97.5216 705.348 -94.7783 710.773 -92.3013 715.091C-90.8465 717.369 -89.3078 719.161 -88.869 718.962C-87.85 721.233 -89.4206 719.877 -89.187 721.47C-88.3118 724.817 -83.9509 728.316 -84.2125 730.467C-84.2433 730.825 -84.9982 729.814 -85.3754 729.296C-83.8352 730.985 -80.8654 738.49 -80.5473 735.982C-78.4483 741.628 -74.7908 745.886 -73.3698 750.523C-70.5523 752.564 -69.4022 759.992 -66.9637 759.847C-69.23 760.507 -63.8786 770.047 -61.1755 772.907C-62.3692 772.095 -60.3248 776.176 -61.8763 775.282C-59.8795 779.106 -57.7218 782.445 -56.9863 781.225C-55.8493 789.576 -47.738 794.437 -48.8702 800.063C-41.9474 810.908 -35.8103 821.1 -30.0812 831.133C-32.3222 831.818 -36.0751 819.891 -38.0205 821.427C-32.2042 830.743 -27.5786 835.451 -23.1561 845.388C-22.1683 848.044 -24.7835 844.416 -25.5691 843.764C-24.6165 845.29 -23.7155 846.842 -22.8657 848.393C-22.4907 849.065 -22.1157 849.737 -21.7402 850.384C-22.9517 852.598 -24.1367 854.761 -25.2958 856.898C-26.8772 859.876 -28.3304 862.856 -29.5284 865.916C-29.706 865.785 -29.4093 864.764 -29.0876 863.794C-29.9327 865.5 -31.5266 867.554 -30.505 867.851L-29.8639 866.065C-27.0661 864.105 -30.6995 874.26 -30.1709 874.96C-31.2634 870.661 -35.4415 883.04 -36.2991 876.667C-36.7266 877.866 -37.0578 879.503 -36.2897 879.591C-37.3634 881.14 -38.0092 881.464 -37.8003 879.415C-40.5833 885.71 -38.4316 884.1 -41.4333 889.545C-41.8655 889.282 -41.438 888.083 -41.6566 887.233C-42.293 890.481 -42.9294 893.729 -45.8391 898.124C-45.9614 897.712 -46.6072 898.036 -45.8182 896.663C-50.0104 904.655 -50.877 911.439 -56.4575 919.668C-56.9955 916.044 -58.7005 922.278 -60.6429 921.814L-62.6885 926.76L-60.8471 925.324C-63.111 929.395 -63.865 933.693 -66.3219 936.915L-65.3496 933.492L-69.2063 941.336L-66.1999 937.352C-67.5998 941.974 -63.8253 938.079 -67.2848 943.261C-66.8573 942.062 -69.5487 947.332 -71.7004 948.942C-72.2723 951.268 -72.8449 953.645 -74.9113 956.462C-75.8674 956.961 -76.4266 954.824 -77.072 955.123C-76.7527 957.897 -81.9057 964.927 -81.7997 968.263C-81.6824 967.238 -82.5468 966.713 -82.8827 966.888L-82.6594 969.199C-84.0686 970.897 -84.3789 971.072 -84.9334 970.398C-88.245 975.992 -81.821 969.75 -86.4245 976.018C-86.2365 975.431 -86.5468 975.606 -86.0936 974.407C-88.1132 977.533 -89.673 980.793 -91.1801 983.952C-91.5768 984.792 -91.9992 985.632 -92.3956 986.447C-92.8971 987.44 -93.3982 988.408 -93.8997 989.401C-94.902 991.335 -95.9548 993.218 -97.1629 995.201L-96.248 995.779C-96.2597 996.599 -97.2817 996.328 -98.7083 995.666C-97.8072 993.628 -95.6272 990.043 -97.9133 992.087C-98.5731 993.386 -99.2328 994.684 -99.8929 996.008C-96.5572 997.672 -93.1947 999.259 -90.0106 1000.77C-88.2019 1001.61 -87.3858 1001.93 -86.2137 1002.46L-82.9259 1003.89C-78.5426 1005.83 -74.2626 1007.81 -70.4236 1010.15L-71.947 1009.08C-69.4344 1007.34 -66.0905 1013.8 -61.0823 1015.08C-62.2562 1014.68 -63.2189 1015.64 -62.7811 1015.52C-57.0119 1019.17 -50.2506 1021.6 -40.796 1025.78L-42.2575 1025.76C-39.0361 1028.25 -33.1536 1031.15 -29.5201 1033.51C-28.0586 1033.53 -25.9481 1034.79 -26.7714 1033.19C-22.145 1037.85 -16.7193 1040.41 -11.3151 1042.7C-8.613 1043.84 -5.93583 1044.93 -3.38942 1046.2C-0.232064 1047.78 2.7187 1049.46 6.14525 1051.95C6.6416 1051.31 7.16324 1050.71 7.73651 1050.07C7.2625 1050.94 6.78295 1052.19 6.46314 1053.03C5.87524 1052.89 5.66939 1052.94 6.3818 1053.34L6.58546 1053.44L9.83445 1046.85C10.8389 1044.76 12.0273 1042.36 12.6094 1041.12C11.1969 1041.25 11.3676 1041.87 9.36757 1043.63C9.59988 1041.74 10.3802 1039.19 11.592 1036.95C10.119 1041.31 13.2722 1037.82 14.8052 1036.43C14.3162 1036.55 14.3019 1035.75 13.892 1035.72C18.2778 1032.12 12.227 1033.8 16.9238 1028.18L17.2996 1028.8C18.3104 1026.27 18.783 1023.71 20.3314 1021.25C22.1069 1020.84 19.5214 1024.08 20.4093 1024.76C22.282 1021.15 21.9903 1016.45 24.9508 1013.88C24.4646 1015.59 23.2792 1017.78 22.7677 1019.46C26.1154 1016.72 25.9704 1016.1 27.6218 1013.61L27.439 1013.84L31.3934 1008.12L30.1688 1009.46C29.4882 1003.27 34.5868 1000.04 35.8179 992.876C34.5644 999.808 36.4108 994.449 37.5221 995.644C38.7467 994.303 40.4438 992.198 40.4569 993.071C40.6867 991.356 41.5486 990.265 42.4384 989.021C42.6219 988.742 42.8311 988.463 43.0406 988.158C43.1454 988.006 43.2505 987.828 43.3048 987.623C43.4645 987.215 43.5235 986.678 43.5378 985.678C43.8913 986.067 44.458 984.101 44.8671 985.979C45.1887 985.009 45.0906 984.7 44.8345 984.67C44.5789 984.615 44.1393 984.865 44.0177 984.402C44.4343 982.177 45.6124 980.501 46.4978 979.565C47.1387 981.369 47.6525 983.095 48.2242 984.36C48.8208 985.676 49.4237 986.557 50.7921 987.705C55.2869 994.386 57.4836 995.007 61.6249 1001.3C62.049 1003.92 59.0492 1000.29 59.0492 1000.29C60.249 1004.25 61.7492 1006.94 64.012 1010.1C63.2754 1009.61 63.3142 1010.48 63.3467 1011.79C64.8726 1014.48 65.8968 1012.8 67.0966 1016.76C66.2812 1016.39 65.0816 1015.99 63.9173 1014.92C65.9768 1017.95 68.4502 1020.73 70.5592 1023.89C70.2331 1025.17 68.3483 1022.48 67.2334 1021.54C69.5155 1025.13 72.92 1030.95 74.7331 1031.49L73.9504 1028.84C74.7005 1030.18 73.2658 1030.09 72.5094 1029.18C69.907 1026.45 70.5533 1024.3 70.9181 1023.9L72.4246 1026.15C73.7866 1022.37 67.1222 1016.76 64.8071 1011.88L67.7415 1012.93L63.6461 1008.79C63.6136 1007.48 64.2983 1006.24 65.8051 1008.46C64.9895 1004.53 63.5613 1005.76 63.1241 1002.27C63.13 1001.86 63.2824 1001.96 63.5095 1002.22L61.2199 999.139C61.9573 999.585 62.2892 997.897 63.0524 1000.11C61.07 993.494 56.6677 991.097 56.9418 988.075L57.3202 988.517C54.9145 984.584 54.2541 984.139 53.9135 984.647C53.5479 985.103 52.9783 985.479 50.9802 983.527C51.1943 981.12 51.0842 978.066 50.6499 974.367C50.2598 974.746 49.8942 975.203 49.5539 975.685C49.0818 974.627 48.1127 972.459 48.4058 971.693C47.3168 970.729 47.411 971.32 47.5556 971.963C47.7255 972.633 47.9196 973.405 47.3808 973.423C47.1611 972.65 46.9153 971.903 46.6179 971.181C45.3908 972.702 43.9097 975.835 42.6983 978.049C41.4608 980.288 40.3872 981.837 39.3414 981.437C39.2703 982.821 40.0798 981.807 40.5484 981.326C41.0432 980.795 41.2231 980.772 40.2625 983.374C38.9871 982.894 38.0614 984.855 37.4995 986.489C36.8851 988.198 36.2905 990.318 34.7289 991.911C34.1393 990.108 36.7243 986.888 33.6016 990.049C34.4252 993.42 29.1661 997.115 27.8356 1000.48C29.385 1001.53 24.7569 1007.72 22.4197 1013.33C22.0443 1012.68 16.0772 1022.83 12.7796 1027.45L12.5786 1027.16C13.7059 1029.03 10.609 1033.96 8.93784 1037.83C8.02433 1037.15 8.01155 1036.25 8.65926 1034.01L6.7628 1037.49C6.80601 1038.06 6.74626 1038.65 6.55613 1039.39C6.39272 1040.05 6.2828 1040.56 5.91098 1041.46C5.6883 1040.89 5.43925 1040.37 5.13781 1039.93C4.63668 1040.9 4.28533 1042.15 3.75083 1043.66C2.98419 1043.47 2.06554 1043.14 1.04655 1042.67C0.537051 1042.43 0.0282828 1042.14 -0.505764 1041.83C-1.09034 1041.46 -2.08149 1040.83 -2.84263 1040.25C-3.80529 1041.21 0.151519 1046.07 -6.58044 1043.38C-6.46721 1042.64 -6.11661 1041.44 -4.3306 1042.08C-4.91738 1041.87 -6.55396 1041.53 -7.49053 1040.67L-4.39207 1041C-6.852 1039.07 -6.2913 1041.1 -8.40146 1039.81C-7.87615 1038.95 -9.66216 1038.31 -8.96179 1037.76C-8.34936 1037.97 -7.26372 1039.16 -6.2392 1039.26C-8.60282 1037.76 -11.2906 1035.62 -11.8887 1034.4C-11.9488 1035.02 -12.547 1035.6 -14.4066 1034.73C-19.0899 1032.25 -15.4046 1032.79 -17.8646 1030.86C-19.3261 1030.84 -21.9354 1028.59 -22.749 1029.89C-24.0977 1029.15 -24.0097 1028.38 -24.3338 1027.74C-27.0674 1027.01 -35.6352 1021.78 -33.702 1024.68L-33.1438 1025.1C-33.1438 1025.1 -33.4244 1024.99 -33.5775 1024.94C-42.1775 1021.97 -49.5184 1015.25 -57.6466 1011.57L-57.384 1011.13C-62.3299 1009.09 -67.9245 1005.78 -71.7845 1004.9C-73.1584 1004.14 -74.5942 1002.32 -73.7191 1002.1C-77.4658 1000.48 -78.1369 1000.78 -82.8816 997.227C-78.8722 998.413 -83.7339 995.855 -78.9016 998.669C-81.1117 997.201 -82.379 996.157 -83.8028 995.29C-84.1079 995.106 -84.6166 994.817 -84.8203 994.711C-85.024 994.606 -85.2536 994.526 -85.5346 994.445C-86.0708 994.283 -86.7613 994.145 -87.8865 993.924C-86.4224 993.765 -87.0004 992.936 -87.7114 992.439C-87.3967 991.956 -87.1846 991.472 -87.1542 991.139C-87.7252 991.618 -88.3487 992.173 -89.0249 992.83L-88.9754 992.959C-88.9754 992.959 -89.1286 992.906 -89.1795 992.879C-88.6219 991.554 -87.8083 990.257 -87.0482 989.114C-86.6442 989.556 -86.1878 989.922 -85.7047 990.211C-85.4457 990.035 -85.2637 989.858 -85.082 989.707C-84.8472 989.428 -84.375 988.691 -84.0856 988.182C-83.4288 987.089 -82.8485 985.969 -82.3452 984.848C-81.3128 982.606 -80.5365 980.334 -79.7621 978.191C-78.2125 973.854 -76.6427 969.901 -73.1665 967.13C-72.8403 964.057 -76.7223 971.874 -76.706 968.951C-74.1319 964.705 -69.493 961.335 -68.7552 959.961C-64.6756 954.454 -67.9146 953.202 -63.9312 947.258C-64.9129 947.757 -66.7334 947.731 -64.6882 942.811C-62.114 938.565 -59.5254 938.679 -60.5941 941.664C-61.1223 942.734 -61.5641 943.138 -61.7161 943.007C-62.3019 944.512 -63.0741 946.501 -61.5407 945.087L-61.7594 944.238C-60.0399 942.365 -56.8246 936.333 -56.698 938.232C-55.4158 934.66 -56.799 936.333 -58.4221 938.644C-54.6037 933.467 -53.6295 929.916 -49.9605 924.429C-50.7663 925.187 -51.8506 925.684 -51.3502 924.768C-46.0796 916.688 -50.3401 920.5 -47.4351 914.643C-44.8559 911.833 -46.1334 916.867 -43.6607 910.747C-41.1781 907.526 -41.8402 910.773 -42.1714 912.41C-40.3441 906.589 -36.1377 902.982 -34.3266 900.084L-35.3956 903.095C-34.7545 901.309 -33.9915 899.961 -33.2537 898.587L-35.1914 899.585C-34.1181 898.061 -33.3547 896.687 -32.9485 896.975C-32.7396 894.927 -35.4148 897.273 -34.5648 893.439C-32.8453 891.566 -31.5421 886.532 -29.7217 886.558C-33.919 893.115 -27.8756 886.585 -30.8066 892.467C-30.3791 891.268 -29.616 889.919 -28.5427 888.396C-28.2584 888.246 -28.3687 888.783 -28.5552 889.268C-23.7272 883.438 -28.4997 885.396 -24.813 878.678C-24.4724 879.965 -22.443 877.943 -22.0155 876.744C-23.5163 879.466 -24.0496 877.304 -23.3168 874.494C-20.3361 870.51 -21.2199 869.549 -19.9056 867.311L-21.6075 869.748C-21.9221 868.436 -20.6352 866.326 -19.2563 863.165C-18.4882 863.253 -20.3249 866.151 -19.4652 865.214C-19.2563 863.165 -17.8471 861.467 -16.3078 859.643C-15.5254 858.731 -14.7169 857.794 -14.0092 856.727C-13.8524 856.524 -13.5894 856.066 -13.3528 855.659L-12.6421 854.387C-12.1937 853.521 -11.7706 852.63 -11.4501 851.737C-11.0581 851.229 -10.7453 850.875 -10.4855 850.648C-10.5412 849.159 -8.64495 851.059 -9.70705 848.223C-10.4601 847.083 -11.0615 846.1 -11.5618 845.221C-11.812 844.782 -12.0369 844.368 -12.2365 843.98C-12.3614 843.748 -12.4606 843.516 -12.5855 843.283C-12.9829 842.38 -13.2279 841.581 -13.4473 840.783C-13.8856 839.161 -14.3489 837.487 -16.2099 834.922C-16.4719 837.098 -16.0635 837.232 -19.1435 833.828L-13.7045 842.626L-18.299 837.533C-16.9029 840.323 -14.6334 843.023 -13.9661 844.776C-16.2916 842.409 -15.8579 842.569 -16.0888 844.361C-16.3816 839.741 -20.8605 837.317 -21.995 832.377L-19.2331 831.134C-21.3866 823.923 -26.5896 820.129 -30.2576 811.229L-29.3258 814.217C-30.984 813.604 -32.175 809.022 -34.0103 806.456C-32.9818 806.266 -33.5187 804.36 -33.5746 802.898C-34.1714 803.377 -36.7157 796.595 -38.8977 796.744L-39.6549 792.322C-42.6813 785.174 -46.2541 785.739 -49.3112 778.95C-47.3066 780.441 -48.2079 777.119 -45.24 781.188C-46.3622 778.967 -47.2042 776.877 -47.8496 777.176C-47.955 775.584 -52.2072 771.651 -52.3766 769.161C-53.2381 768.43 -54.3432 768.594 -55.5379 766.064C-55.4815 765.705 -55.0987 765.839 -55.0987 765.839C-55.538 766.064 -57.6886 762.237 -57.5734 764.932C-58.2499 756.664 -67.5081 745.94 -68.1231 738.75C-70.9027 734.068 -74.1551 728.38 -76.4519 724.012C-76.0435 724.147 -75.9871 723.788 -75.6663 724.665C-77.9069 718.17 -80.1455 722.267 -82.7326 714.895C-83.0562 710.633 -80.0867 718.164 -80.6408 715.669C-79.444 714.481 -80.493 712.517 -81.9731 710.213C-82.3247 709.695 -82.4518 709.616 -82.703 709.254C-82.9294 708.943 -83.1814 708.631 -83.3818 708.295C-83.7824 707.622 -84.0542 706.9 -83.8183 706.545C-83.6644 706.547 -83.5363 706.549 -83.4077 706.525L-83.5121 706.652L-83.2092 706.989C-83.2092 706.989 -83.1304 706.862 -83.1293 706.785C-81.9982 706.596 -81.7601 706.087 -80.9267 705.201C-80.7941 704.895 -79.3695 703.916 -78.2047 703.163C-76.9882 702.385 -75.7208 701.634 -74.3266 700.987C-74.3266 700.987 -74.4864 701.395 -74.1282 701.452C-70.9229 697.907 -63.6803 693.6 -58.325 690.343C-59.457 692.378 -60.558 692.26 -58.8746 692.9C-56.4687 691.447 -60.5712 691.388 -55.7598 688.508C-53.8078 688.305 -49.943 687.052 -48.8035 688.069L-53.4808 690.541C-50.2296 690.946 -47.4086 687.371 -44.8046 686.408L-44.7658 687.28C-37.683 683.381 -38.477 681.523 -30.6774 677.711L-31.7524 677.568C-28.4135 673.64 -27.6887 676.754 -24.1256 673.292L-21.9367 674.451C-19.3711 672.59 -13.0439 667.731 -8.18089 664.826C-10.3495 667.616 -15.8645 671.281 -19.0825 673.928C-16.2928 672.532 -9.7283 669.01 -8.73044 667.383C-9.76709 668.137 -10.9375 669.275 -12.1726 669.565C-9.48606 666.423 -5.36549 663.43 0.162372 660.663C0.425672 661.975 2.09597 661.742 4.44249 660.853C4.85495 660.705 5.2934 660.531 5.73186 660.358C6.06739 660.209 6.42855 660.06 6.78973 659.912C7.51243 659.589 8.26116 659.24 8.93148 658.993C9.62517 660.696 10.1137 662.396 9.40782 663.334C9.4591 663.335 9.71 663.723 9.88581 663.982L10.4378 664.837L11.5153 666.596C12.2163 667.786 12.8661 668.975 13.4895 670.215C14.7622 672.669 15.9056 675.199 17.0484 677.78C19.3334 682.967 21.6148 688.411 24.6111 694.071C25.2788 688.643 26.3849 697.353 28.826 695.234C30.3537 697.795 30.8261 698.827 30.7701 699.16L33.1817 708.042C33.3281 710.353 31.2899 705.835 30.769 706.392C33.5053 712.304 30.8282 709.419 32.0499 713.643C32.6584 712.343 34.5191 714.935 35.8024 718.441L34.7246 713.117C36.1344 714.958 36.909 716.379 37.3786 717.617C37.6258 718.262 37.7217 718.725 37.9169 719.42C38.1861 720.321 38.456 721.172 38.7007 721.996C39.2141 723.747 39.803 725.602 40.7959 727.899C41.7888 730.195 43.2623 732.961 45.2958 736.016C44.3874 734.977 43.4549 733.835 42.4469 732.59C44.2002 735.513 46.8952 740.732 49.7926 746.134C54.3552 737.351 59.397 727.345 60.3657 722.383C61.2504 721.498 62.9358 720.215 61.3224 723.628C61.928 722.534 62.5595 721.415 63.1914 720.27C63.5603 719.582 63.9036 718.895 64.2725 718.208C64.9326 716.884 65.5931 715.534 66.2023 714.183C67.4727 711.432 68.667 708.628 69.8605 705.875C72.2472 700.396 74.6287 695.275 77.3969 691.801L77.6632 692.908C78.4859 690.971 78.1549 689.017 80.0806 687.07C80.2821 687.329 80.3468 688.176 80.8461 687.337C81.144 686.239 82.3361 681.793 84.0607 679.561L83.6914 682.069C86.7575 677.497 88.3272 673.544 89.6135 669.69C90.2308 667.776 90.8473 665.912 91.465 663.972C91.6072 663 91.9329 661.748 92.4897 660.473C92.8124 661.222 93.2442 661.51 93.5999 661.746C93.9768 662.29 94.5551 663.093 95.1074 663.922C95.3341 664.207 95.307 664.309 95.6363 664.596C96.4491 665.146 97.2113 665.645 97.8465 666.064L97.5615 666.265C108.652 672.63 117.517 675.014 128.32 679.914C133.599 685.58 149.679 692.735 159.377 699.593C157.984 698.368 160.474 698.198 162.438 698.996C164.644 700.72 169.919 701.283 168.537 702.904L167.697 702.405C168.555 705.187 173.806 707.442 177.698 709.627L179.651 707.603C179.929 707.889 180.207 708.175 180.485 708.461L180.915 708.878C180.915 708.878 181.015 709.059 181.065 709.136C181.24 709.447 181.416 709.706 181.567 709.913C181.894 710.354 182.197 710.666 182.603 710.954C182.157 711.64 181.917 712.277 181.624 713.094C180.539 715.386 179.481 717.654 178.477 719.742C176.363 724.046 174.337 727.607 172.06 729.037C171.302 731.821 169.643 734.875 168.911 737.634L167.717 736.796C163.673 743.432 161.65 746.762 157.347 755.369L157.378 753.164C154.695 757.87 157.776 761.171 155.456 765.6L152.836 765.87C148.332 774.192 142.07 781.668 139.323 790.81C139.122 790.525 138.693 789.98 139.354 788.604C137.17 792.497 129.813 803.009 133.198 803.032C131.44 802.211 128.357 811.502 126.646 816.402L125.768 815.03C125.316 819.691 125.696 820.055 123.231 825.585C122.394 826.753 121.634 826.127 122.86 824.657C119.933 828.462 122.266 828.546 118.839 833.242L119.077 830.911C116.632 835.159 117.249 835.04 116.9 837.907C115.934 840.894 112.144 845.866 110.656 845.896C110.73 846.102 110.777 846.385 110.797 846.77C110.739 847.256 110.628 847.819 110.466 848.406C110.141 849.607 109.66 850.96 108.896 852.385C109.121 852.824 109.319 853.288 109.517 853.779C109.253 854.313 108.271 853.068 107.742 852.368C108.288 853.684 108.859 854.974 109.432 856.162C109.731 856.756 110.031 857.325 110.305 857.893C110.53 858.281 110.729 858.669 110.955 859.056C111.755 860.453 112.585 861.644 113.363 862.784C114.921 865.037 116.277 867.032 116.929 869.862C116.565 870.19 116.508 870.625 116.604 871.088C113.687 865.276 111.369 860.576 111.697 860.965C110.534 861.564 112.697 866.339 109.174 863.442C111.973 866.739 117.152 872.173 118.929 877.02C118.925 877.302 118.922 877.559 118.841 877.84L118.462 877.424C118.882 878.533 119.459 879.413 120.115 880.217C120.657 881.764 121.001 882.769 121.674 884.163C120.966 885.205 123.876 889.786 125.021 892.162C126.213 891.307 127.553 894.48 127.166 891.064C127.262 891.476 126.786 890.699 125.936 889.174C125.71 888.837 125.485 888.45 125.308 888.242C125.359 888.268 125.436 888.295 125.512 888.347C124.713 886.823 123.664 884.859 122.466 882.585C124.06 884.095 125.575 885.732 126.174 888.69C127.599 889.454 129.125 890.348 129.912 890.898C129.751 894.999 131.912 901.647 131.251 903.073C135.59 909.829 140.272 919.616 144.969 922.863C146.302 924.729 145.47 925.538 145.482 926.487C144.65 925.449 143.978 924.029 143.292 923.583C145.983 927.315 149.636 935.445 151.814 935.554C153.659 941.042 148.792 933.484 152.644 940.335L151.653 939.655C155.975 954.822 167.366 959.883 171.712 976.949C171.395 975.79 171.224 975.198 171.383 974.841C173.092 979.072 175.084 983.229 177.179 987.362L178.776 990.463L180.2 993.125L182.451 997.106L177.875 999.657C175.652 1000.86 173.172 1002.13 170.822 1003.27C166.044 1005.62 161.217 1007.75 156.269 1009.45C151.137 1011.46 151.143 1012.79 148.571 1015.14L146.813 1014.29L142.522 1018.49C135.887 1023.34 128.271 1021.49 120.222 1028.35L121.885 1028.68C118.504 1030.17 111.748 1034.54 111.741 1033.18C111.48 1033.51 111.156 1034.68 109.614 1034.86L109.137 1034.19L101.674 1039.55C95.1471 1042.22 101.184 1036.18 91.989 1040.69C88.7289 1042.69 83.3738 1047.72 84.9148 1047.56C86.3093 1046.89 88.6526 1046.23 89.1302 1046.91L86.2041 1048.86C86.7337 1051.28 85.454 1054.68 93.8232 1052.28L98.4713 1048.27L100.7 1048.43L96.2555 1050.78C99.2862 1050.46 100.464 1048.79 101.973 1047.27C102.687 1047.61 103.61 1047.6 104.769 1047.28L108.965 1042.6C110.009 1043.1 107.462 1045.45 111.2 1044.12C113.154 1041.94 107.901 1043.46 111.633 1040.77C114.664 1040.42 114.339 1041.6 116.886 1039.25C117.574 1039.59 117.128 1040.26 116.064 1041.11C118.376 1039.09 122.967 1037.26 123.763 1035.43C127.022 1035.27 132.578 1030.55 133.342 1032.69C133.919 1031.78 137.22 1028.72 139.624 1027.4C136.403 1032.07 148.844 1022.89 148.978 1026.07C151.162 1022.23 160.415 1019.03 165.629 1014.84C165.394 1015.17 164.922 1015.86 164.356 1016C167.737 1014.51 169.017 1014.69 171.36 1014C170.876 1011.99 175.792 1008.99 177.983 1006.45C182.885 1006.14 176.601 1009.79 178.715 1010.82C178.237 1010.15 179.82 1008.89 181.247 1007.76C181.481 1007.53 182.231 1007.05 182.75 1006.68C183.294 1006.3 183.76 1005.95 184.098 1005.67C184.747 1005.09 184.854 1004.76 184.11 1004.77C186.968 1003.99 188.283 1003.5 189.262 1003.21C190.292 1002.91 191.011 1002.85 193.452 1002.55C192.743 1001.9 193.058 1001.39 193.912 1000.86C192.834 999.127 192.051 996.475 189.602 993.824C188.448 990.191 188.666 989.348 188.676 988.604C188.679 988.425 188.682 988.22 188.583 987.987C188.559 987.833 188.51 987.653 188.411 987.421C188.187 986.956 187.761 986.283 186.982 985.144C186.482 982.469 189.503 986.411 189.503 986.411L189.66 986.208ZM126.394 871.562C126.944 872.545 127.393 873.397 127.693 873.94C127.418 873.449 127.043 872.777 126.368 871.587L126.394 871.562ZM121.379 861.77C121.926 862.984 122.674 864.482 123.498 866.058C123.233 866.618 122.594 866.481 122.095 865.499C122.654 865.892 121.74 863.443 121.379 861.796L121.379 861.77ZM123.043 887.03C122.064 885.579 122.048 884.913 122.206 884.581C122.606 885.305 123.082 886.133 123.733 887.219C123.81 887.22 123.911 887.299 123.988 887.325C123.654 887.321 123.348 887.239 123.043 887.03Z" fill="#3B2335"/>
<path d="M126.144 888.972C126.295 889.18 126.396 889.284 126.572 889.568C126.526 889.183 126.454 888.849 126.382 888.489C126.153 888.383 125.898 888.251 125.694 888.145C125.844 888.43 125.994 888.714 126.144 888.972Z" fill="#3B2335"/>
<path d="M184.669 733.218L184.338 733.06L184.144 734.057L184.669 733.218Z" fill="#3B2335"/>
<path d="M14.9099 1036.28C15.0644 1036.23 15.297 1036.1 15.6099 1035.75C15.5073 1035.75 15.222 1035.97 14.9099 1036.28Z" fill="#3B2335"/>
<path d="M27.7264 1013.48L29.9492 1010.49C28.9309 1011.76 28.2502 1012.72 27.7264 1013.48Z" fill="#3B2335"/>
<path d="M37.9762 996.164C37.8784 995.83 37.7524 995.674 37.6264 995.518L37.626 995.544L37.9762 996.164Z" fill="#3B2335"/>
<path d="M70.8133 1029.44L71.2111 1030.31C71.2111 1030.31 71.3913 1030.26 71.4675 1030.32L70.8133 1029.44Z" fill="#3B2335"/>
<path d="M71.4674 1030.32L72.0959 1031.2C71.8714 1030.76 71.6718 1030.37 71.4674 1030.32Z" fill="#3B2335"/>
<path d="M73.454 1033.06L72.0959 1031.2C72.4449 1031.9 72.8427 1032.77 73.454 1033.06Z" fill="#3B2335"/>
<path d="M59.335 1005.4L58.7196 1005.39C58.898 1005.47 59.1031 1005.47 59.335 1005.4Z" fill="#3B2335"/>
<path d="M55.5137 998.263C56.2832 1000.04 56.727 1003.08 58.2334 1005.33L58.7206 1005.34C57.4488 1004.6 57.1374 999.492 55.5137 998.263Z" fill="#3B2335"/>
<path d="M42.7004 974.304L46.7442 967.72L46.8937 968.03L46.7472 967.515C46.1564 967.583 45.3586 967.777 46.7865 964.771C46.8869 964.927 47.0118 965.159 47.1619 965.418C47.0136 965.031 46.8905 964.67 46.7917 964.412C44.1791 967.76 44.5113 967.842 44.8651 968.206C45.1922 968.647 45.3577 969.624 42.6744 974.33L42.7004 974.304Z" fill="#3B2335"/>
<path d="M30.6099 994.802C32.1192 991.49 29.8711 994.458 29.6964 994.122C29.0227 996.395 28.8864 996.958 30.6099 994.802Z" fill="#3B2335"/>
<path d="M181.123 710.447C180.815 710.494 180.557 710.541 180.325 710.641C180.633 710.645 180.992 710.65 181.427 710.733L181.123 710.472L181.123 710.447Z" fill="#3B2335"/>
<path d="M96.6113 319.606L197.159 268.397L122.801 122.432L201.312 -21.3406L102.274 -75.411L60.7665 0.597807L21.455 -76.5695L-79.0922 -25.3601L-4.73463 120.604L-83.2455 264.377L15.7926 318.447L57.3002 242.413L96.6113 319.606Z" fill="#304780"/>
<path d="M93.4294 321.195C94.1664 321.667 94.8708 320.831 93.7424 319.045L91.545 318.475L93.4294 321.195Z" fill="#3B2335"/>
<path d="M89.8096 307.14C87.964 305.293 85.3751 303.409 84.7032 305.554C87.2727 307.001 86.9272 307.842 89.8553 309.321C90.9838 311.106 91.0357 312.851 90.3181 312.815C91.0551 313.287 91.4791 315.909 92.9333 316.443C92.8488 313.39 91.3288 310.291 88.7012 307.534C88.6881 306.662 89.425 307.135 89.7836 307.165L89.8096 307.14Z" fill="#3B2335"/>
<path d="M73.2457 283.668C73.6475 284.263 74.0511 284.731 74.4815 285.122C74.1551 284.63 73.8284 284.163 73.5281 283.646C73.4255 283.645 73.3482 283.669 73.2461 283.642L73.2457 283.668Z" fill="#3B2335"/>
<path d="M16.802 308.53L17.3024 307.614C17.2819 307.255 17.2102 306.895 17.1127 306.534L16.802 308.53Z" fill="#3B2335"/>
<path d="M37.2736 270.509C36.7487 271.348 37.8633 272.313 38.2387 272.959C37.9933 272.186 38.0813 271.418 38.4004 270.628C38.1718 270.471 37.8132 270.44 37.2989 270.535L37.2736 270.509Z" fill="#3B2335"/>
<path d="M74.0738 272.396L74.8034 273.381C74.602 273.121 74.3005 272.681 74.0738 272.396Z" fill="#3B2335"/>
<path d="M144.162 302.944C144.162 302.944 144.061 302.788 144.037 302.711C143.879 302.965 143.852 303.093 144.162 302.944Z" fill="#3B2335"/>
<path d="M96.303 319.312L96.8983 318.935C96.851 318.653 96.7778 318.395 96.6533 318.137L96.303 319.312Z" fill="#3B2335"/>
<path d="M72.9019 282.586C72.6272 282.069 72.3525 281.552 72.0782 281.009C72.4009 281.758 72.6506 282.223 72.9019 282.586Z" fill="#3B2335"/>
<path d="M179.876 221.39C179.863 222.287 179.725 222.952 179.486 223.487C180.141 222.522 182.921 227.203 179.876 221.39Z" fill="#3B2335"/>
<path d="M73.9689 283.294C73.5586 283.288 73.2539 283.078 72.9275 282.586C73.1531 282.949 73.3531 283.311 73.5535 283.647C73.7842 283.65 73.9905 283.576 73.9689 283.294Z" fill="#3B2335"/>
<path d="M200.12 256.481C197.602 251.47 197.269 254.979 195.764 254.418C192.256 248.701 195.608 251.031 195.438 248.567C193.103 245.071 190.081 243.002 188.736 240.213C188.92 239.856 188.749 239.264 189.409 239.735C186.071 236.481 183.396 228.083 179.371 224.358C179.352 223.947 179.381 223.691 179.486 223.538C179.007 224.711 178.204 225.264 177.535 225.434C176.362 223.212 174.356 221.824 175.017 220.423C175.689 221.817 176.178 221.696 176.864 222.167L175.201 220.066C175.705 217.15 177.391 222.996 178.553 222.397C175.717 218.099 171.681 213.425 170.349 209.687C171.525 208.165 175.057 217.602 174.032 212.227L176.206 217.952C176.54 212.571 177.722 221.333 178.386 216.188C175.209 208.833 173.519 208.604 170.367 201.276C168.691 200.123 169.35 202.466 167.674 201.288C160.961 191.959 167.509 191.335 161.677 184.943C159.671 183.555 157.308 183.803 155.647 177.983L158.327 178.894C154.991 171.896 153.8 176.239 151.296 168.406C152.642 169.349 154.634 173.532 154.317 172.399C153.317 166.999 151.638 169.591 149.792 166L150.968 164.452C146.969 157.214 141.742 149.702 137.292 141.688C137.982 141.903 139.17 143.048 138.688 140.913C136.709 137.679 134.861 134.19 133.117 130.626C132.245 128.844 131.399 127.011 130.578 125.204L129.957 123.836C129.858 123.604 129.859 123.527 129.81 123.372C129.736 123.115 129.689 122.858 129.641 122.626C129.849 122.398 130.058 122.17 130.24 121.994L130.37 121.867C130.37 121.867 130.421 121.868 130.605 121.563L131.444 120.293C132.571 118.616 133.671 116.965 134.746 115.365L135.451 110.912C135.951 110.048 136.931 109.626 136.659 110.699C139.249 107.171 135.925 110.047 136.417 107.926C137.5 105.71 138.735 105.471 138.378 107.082C140.919 99.7579 146.416 86.6548 151.687 80.3446L151.331 81.9295C154.868 76.7228 152.005 74.2455 156.044 69.7897L155.746 70.8882C162.837 59.2441 168.858 45.3791 175.82 37.3493C174.86 34.5657 183.138 25.9905 180.888 23.7527C185.925 17.6443 185.329 19.8669 191.461 10.7224C192.984 8.23093 191.888 5.98404 193.346 2.671L194.772 3.35824L195.666 -1.73245L198.584 -3.12679L199.86 -6.28856C199.126 -5.14504 197.854 -4.11179 197.552 -4.5008C198.032 -5.75056 198.717 -7.04867 199.479 -8.2944C199.872 -8.90426 200.266 -9.51411 200.684 -10.098C201.155 -10.7324 201.6 -11.3415 202.018 -11.9253C204.427 -15.3786 206.83 -18.4217 207.371 -18.5678L209.832 -23.8412L202.292 -27.4114L198.7 -29.1042L196.942 -29.9245C196.254 -30.2421 196.126 -30.2696 195.693 -30.4553C196.055 -30.6296 196.338 -30.7025 197.791 -30.1175C199.092 -29.5859 200.698 -28.9474 202.126 -28.3627C199.168 -29.5335 197.766 -30.1691 196.978 -30.6677C196.42 -31.0347 196.499 -31.2387 196.477 -31.4955C196.484 -31.9827 196.543 -32.4691 193.502 -33.2821C194.057 -32.5817 192.673 -32.6785 192.388 -32.4517C190.164 -34.7661 184.057 -38.085 179.343 -40.2042L180.735 -40.6972C172.698 -45.403 163.296 -49.6411 154.135 -54.6451C157.18 -52.3959 155.521 -51.163 152.744 -52.4595L152.466 -54.5151C150.235 -54.5471 154.975 -52.4275 150.807 -53.2566C147.476 -55.3047 149.412 -56.1746 151.635 -55.5785L147.198 -57.3347C147.206 -57.8988 148.304 -57.601 148.849 -58.0291C146.644 -58.0608 142.464 -63.4293 139.152 -63.1947L139.16 -63.7588C129.999 -68.7628 125.588 -70.5187 118.08 -74.5244C117.242 -73.3311 114.474 -75.2173 111.707 -75.4108C107.945 -77.7472 104.031 -80.214 99.8871 -82.7867C98.2603 -80.2198 96.528 -77.4492 94.7407 -74.423C93.9516 -73.0495 93.1369 -71.6763 92.3219 -70.2774C91.7958 -69.3617 91.2698 -68.446 90.7686 -67.4787C88.8765 -62.5049 91.1 -65.5505 90.7051 -63.0429C89.3754 -63.3184 85.8693 -56.6751 86.8995 -60.5585C82.7582 -52.5395 81.5977 -50.2993 77.0613 -39.7726C78.1247 -40.6037 79.0127 -41.7194 79.0518 -40.8725C78.2551 -38.9605 76.3034 -36.9881 75.9012 -37.5581L76.0371 -38.0947C73.8211 -31.9971 69.4517 -25.9561 65.291 -20.1685C64.2969 -18.7979 63.3283 -17.4269 62.3858 -16.0812C62.0488 -15.8295 61.8155 -15.6534 61.6334 -15.4765C61.2689 -15.097 61.1854 -14.6366 60.9267 -12.6912L60.9835 -13.0751L60.7102 -11.8993C60.3241 -11.8022 59.7893 -12.0664 59.0795 -12.6407C58.6586 -13.6983 58.9912 -13.6422 59.2747 -13.7407C59.6092 -13.8129 59.8451 -14.1685 59.8829 -15.0143C59.6001 -14.967 59.3199 -15.0993 59.0408 -15.3085C58.914 -15.4129 58.762 -15.5433 58.6617 -15.6986C58.5862 -15.8022 58.5855 -15.751 58.4353 -16.0096L57.9848 -16.7854C56.8348 -18.8535 55.8887 -20.8418 54.9932 -22.7781C53.2022 -26.6506 51.6395 -30.3404 48.8481 -34.2016C48.9921 -42.4575 36.892 -57.0951 34.6229 -66.9756L34.0712 -66.0602C32.123 -67.909 33.1392 -69.0229 32.4722 -70.802C31.9513 -70.2452 32.9959 -67.9734 31.833 -69.1442L30.4573 -71.5746C29.7332 -72.9442 28.9835 -74.3142 28.2594 -75.6838C26.787 -78.5259 25.2898 -81.4197 23.7925 -84.3135C20.357 -82.5932 16.8954 -80.8476 13.4082 -79.1024L9.37927 -77.1341L6.25546 -75.6914C2.09904 -73.7763 -2.13392 -71.8879 -6.36652 -70.0251C-14.8317 -66.2996 -23.3727 -62.6521 -31.6343 -58.8211C-38.9413 -55.3868 -33.5708 -52.54 -43.611 -49.8629L-41.801 -52.6837C-48.1198 -48.4145 -54.9927 -44.8456 -61.8641 -41.3794C-65.3001 -39.6334 -68.7356 -37.9131 -72.1455 -36.1925C-74.4455 -34.9688 -76.7195 -33.7704 -78.9935 -32.572C-81.9397 -30.9985 -84.7833 -29.4236 -87.498 -27.8982C-86.4973 -26.1399 -85.496 -24.4329 -84.5206 -22.7007C-85.7048 -24.1795 -86.3692 -24.3429 -87.6412 -26.8487C-87.0612 -24.3784 -84.3179 -18.9535 -81.8408 -14.6352C-80.3861 -12.3575 -78.8473 -10.5659 -78.4085 -10.7647C-77.3896 -8.49331 -78.9602 -9.8494 -78.7266 -8.25602C-77.8513 -4.90953 -73.4904 -1.41049 -73.752 0.739998C-73.7828 1.0986 -74.5377 0.0875941 -74.915 -0.43073C-73.3748 1.25832 -70.4049 8.7638 -70.0868 6.25508C-67.9879 11.9016 -64.3303 16.1599 -62.9093 20.7965C-60.0919 22.8373 -58.9417 30.2654 -56.5033 30.1208C-58.7696 30.7808 -53.4182 40.3207 -50.7151 43.1805C-51.9088 42.3684 -49.8643 46.4497 -51.4159 45.5555C-49.4191 49.3797 -47.2614 52.7189 -46.5258 51.4985C-45.3889 59.8496 -37.2776 64.7104 -38.4097 70.3362C-31.4869 81.181 -25.3498 91.3734 -19.6208 101.406C-21.8618 102.092 -25.6146 90.1643 -27.5601 91.7007C-21.7438 101.017 -17.1181 105.725 -12.6956 115.662C-11.7079 118.317 -14.323 114.69 -15.1087 114.037C-14.156 115.564 -13.255 117.116 -12.4053 118.666C-12.0302 119.339 -11.6552 120.011 -11.2798 120.657C-12.4912 122.871 -13.6763 125.034 -14.8353 127.172C-16.4168 130.15 -17.87 133.129 -19.0679 136.19C-19.2456 136.059 -18.9488 135.037 -18.6272 134.067C-19.4723 135.773 -21.0661 137.828 -20.0446 138.125L-19.4035 136.339C-16.6056 134.378 -20.239 144.533 -19.7105 145.233C-20.8029 140.935 -24.9811 153.313 -25.8386 146.941C-26.2662 148.14 -26.5974 149.776 -25.8293 149.864C-26.9029 151.413 -27.5487 151.738 -27.3398 149.689C-30.1229 155.984 -27.9712 154.373 -30.9729 159.818C-31.4051 159.556 -30.9775 158.356 -31.1962 157.507C-31.8326 160.755 -32.469 164.003 -35.3787 168.398C-35.501 167.986 -36.1468 168.31 -35.3577 166.936C-39.55 174.929 -40.4166 181.712 -45.9971 189.942C-46.535 186.318 -48.24 192.551 -50.1824 192.087L-52.2281 197.033L-50.3866 195.598C-52.6505 199.669 -53.4046 203.966 -55.8615 207.188L-54.8892 203.765L-58.7459 211.609L-55.7395 207.626C-57.1393 212.248 -53.3649 208.352 -56.8244 213.534C-56.3968 212.335 -59.0883 217.605 -61.24 219.216C-61.8119 221.541 -62.3845 223.918 -64.4509 226.735C-65.4069 227.234 -65.9661 225.098 -66.6116 225.396C-66.2923 228.171 -71.4453 235.201 -71.3392 238.536C-71.222 237.512 -72.0864 236.987 -72.4223 237.161L-72.1989 239.473C-73.6082 241.171 -73.9184 241.346 -74.473 240.671C-77.7845 246.266 -71.3605 240.023 -75.964 246.292C-75.7761 245.705 -76.0864 245.88 -75.6332 244.681C-77.6527 247.806 -79.2125 251.067 -80.7196 254.225C-81.1164 255.066 -81.5387 255.906 -81.9351 256.721C-82.4366 257.714 -82.9378 258.681 -83.4393 259.674C-84.4415 261.609 -85.4943 263.492 -86.7025 265.475L-85.7875 266.052C-85.7993 266.873 -86.8212 266.601 -88.2479 265.94C-87.3467 263.901 -85.1667 260.316 -87.4529 262.361C-88.1126 263.659 -88.7724 264.958 -89.4325 266.282C-86.0968 267.945 -82.7343 269.532 -79.5502 271.04C-77.7414 271.886 -76.9254 272.206 -75.7532 272.736L-72.4655 274.168C-68.0822 276.103 -63.8021 278.087 -59.9631 280.425L-61.4865 279.352C-58.974 277.618 -55.6301 284.077 -50.6218 285.354C-51.7957 284.953 -52.7584 285.914 -52.3207 285.792C-46.5514 289.439 -39.7901 291.87 -30.3356 296.057L-31.7971 296.036C-28.5757 298.519 -22.6932 301.424 -19.0597 303.785C-17.5982 303.806 -15.4876 305.067 -16.311 303.465C-11.6846 308.122 -6.25881 310.687 -0.85464 312.97C1.84745 314.112 4.52462 315.202 7.07103 316.469C10.2284 318.053 13.1791 319.737 16.6057 322.222C17.1021 321.588 17.6237 320.98 18.197 320.347C17.7229 321.212 17.2434 322.462 16.9236 323.304C16.3357 323.167 16.1298 323.216 16.8422 323.61L17.0459 323.716L20.2949 317.12C21.2994 315.032 22.4877 312.638 23.0698 311.39C21.6574 311.523 21.8281 312.141 19.828 313.908C20.0603 312.013 20.8407 309.46 22.0525 307.221C20.5794 311.585 23.7326 308.091 25.2656 306.702C24.7766 306.824 24.7624 306.028 24.3525 305.997C28.7383 302.392 22.6874 304.075 27.3843 298.449L27.7601 299.07C28.7708 296.546 29.2434 293.988 30.7919 291.522C32.5673 291.112 29.9819 294.357 30.8697 295.037C32.7424 291.422 32.4507 286.725 35.4112 284.151C34.925 285.863 33.7396 288.051 33.2282 289.736C36.5759 286.989 36.4308 286.372 38.0822 283.882L37.8994 284.11L41.8538 278.397L40.6292 279.738C39.9486 273.548 45.0472 270.313 46.2783 263.149C45.0249 270.081 46.8712 264.722 47.9825 265.918C49.2071 264.576 50.9042 262.472 50.9174 263.344C51.1471 261.629 52.0091 260.539 52.8988 259.295C53.0824 259.015 53.2915 258.736 53.5011 258.432C53.6058 258.279 53.711 258.101 53.7652 257.897C53.9249 257.489 53.9839 256.951 53.9983 255.951C54.3517 256.341 54.9185 254.374 55.3275 256.252C55.6492 255.282 55.551 254.973 55.295 254.944C55.0393 254.889 54.5998 255.139 54.4782 254.676C54.8948 252.45 56.0728 250.775 56.9582 249.839C57.5991 251.643 58.1129 253.369 58.6847 254.633C59.2813 255.95 59.8842 256.83 61.2526 257.978C65.7474 264.66 67.944 265.281 72.0854 271.572C72.5094 274.194 69.5097 270.561 69.5097 270.561C70.7094 274.527 72.2097 277.216 74.4725 280.377C73.7359 279.879 73.7746 280.752 73.8072 282.06C75.333 284.749 76.3573 283.071 77.557 287.038C76.7417 286.667 75.5421 286.265 74.3777 285.197C76.4372 288.227 78.9107 291.007 81.0196 294.166C80.6936 295.443 78.8087 292.749 77.6938 291.81C79.976 295.408 83.3804 301.227 85.1935 301.766L84.4109 299.113C85.161 300.457 83.7262 300.36 82.9699 299.451C80.3675 296.721 81.0137 294.576 81.3786 294.171L82.885 296.424C84.2471 292.648 77.5827 287.038 75.2676 282.158L78.2019 283.2L74.1066 279.064C74.0741 277.756 74.7587 276.509 76.2655 278.736C75.45 274.8 74.0218 276.037 73.5846 272.543C73.5904 272.132 73.7428 272.237 73.9699 272.497L71.6804 269.412C72.4177 269.859 72.7497 268.171 73.5129 270.387C71.5305 263.768 67.1281 261.371 67.4023 258.349L67.7806 258.79C65.375 254.857 64.7146 254.412 64.3739 254.92C64.0083 255.376 63.4387 255.753 61.4407 253.801C61.6547 251.393 61.5446 248.34 61.1104 244.641C60.7203 245.02 60.3547 245.476 60.0144 245.959C59.5423 244.9 58.5732 242.732 58.8662 241.967C57.7773 241.002 57.8714 241.594 58.0161 242.237C58.186 242.906 58.3801 243.678 57.8413 243.696C57.6215 242.924 57.3758 242.176 57.0784 241.454C55.8513 242.975 54.3702 246.108 53.1587 248.322C51.9213 250.561 50.8476 252.11 49.8019 251.711C49.7307 253.095 50.5403 252.08 51.0088 251.6C51.5037 251.068 51.6835 251.045 50.723 253.647C49.4476 253.167 48.5219 255.129 47.9599 256.762C47.3455 258.472 46.7509 260.592 45.1894 262.185C44.5997 260.381 47.1848 257.161 44.062 260.322C44.8856 263.694 39.6266 267.388 38.296 270.754C39.8454 271.802 35.2174 277.994 32.8801 283.602C32.5047 282.956 26.5377 293.103 23.2401 297.723L23.039 297.438C24.1664 299.301 21.0695 304.232 19.3983 308.106C18.4848 307.426 18.472 306.528 19.1197 304.281L17.2232 307.767C17.2665 308.332 17.2067 308.921 17.0166 309.662C16.8532 310.326 16.7432 310.837 16.3714 311.73C16.1487 311.162 15.8997 310.646 15.5983 310.206C15.0971 311.173 14.7458 312.425 14.2113 313.93C13.445 313.714 12.526 313.418 11.507 312.942C10.9975 312.704 10.4887 312.415 9.95468 312.099C9.37011 311.732 8.37896 311.102 7.61782 310.527C6.65516 311.488 10.612 316.34 3.88001 313.654C3.99324 312.911 4.34384 311.711 6.12985 312.352C5.54307 312.139 3.90649 311.807 2.96992 310.948L6.06838 311.274C3.60845 309.341 4.16915 311.375 2.05899 310.088C2.5843 309.224 0.79829 308.583 1.49866 308.029C2.11109 308.243 3.19673 309.438 4.22124 309.53C1.85763 308.034 -0.830108 305.892 -1.4282 304.678C-1.4883 305.293 -2.08651 305.874 -3.94612 305.001C-8.62943 302.524 -4.94419 303.064 -7.40412 301.131C-8.86562 301.11 -11.475 298.867 -12.2886 300.163C-13.6372 299.426 -13.5493 298.657 -13.8734 298.012C-16.607 297.28 -25.1747 292.054 -23.2416 294.954L-22.6833 295.372C-22.6833 295.372 -22.9639 295.265 -23.117 295.212C-31.7171 292.242 -39.058 285.52 -47.1862 281.839L-46.9235 281.407C-51.8695 279.361 -57.4641 276.05 -61.324 275.174C-62.6979 274.41 -64.1337 272.594 -63.2586 272.376C-67.0053 270.758 -67.6764 271.056 -72.4212 267.5C-68.4118 268.686 -73.2735 266.129 -68.4411 268.942C-70.6513 267.474 -71.9186 266.43 -73.3423 265.564C-73.6474 265.38 -74.1562 265.09 -74.3599 264.985C-74.5635 264.879 -74.7932 264.799 -75.0741 264.718C-75.6104 264.557 -76.3008 264.419 -77.426 264.197C-75.962 264.039 -76.5399 263.21 -77.2509 262.712C-76.9362 262.229 -76.7241 261.745 -76.6937 261.412C-77.2648 261.891 -77.8883 262.447 -78.5645 263.104L-78.515 263.233C-78.515 263.233 -78.6681 263.179 -78.719 263.153C-78.1614 261.827 -77.3479 260.531 -76.5877 259.388C-76.1838 259.83 -75.7274 260.195 -75.2442 260.484C-74.9853 260.308 -74.8032 260.131 -74.6215 259.98C-74.3867 259.701 -73.9145 258.965 -73.6251 258.456C-72.9683 257.362 -72.3881 256.242 -71.8847 255.121C-70.8524 252.879 -70.0761 250.608 -69.3016 248.465C-67.752 244.127 -66.1823 240.174 -62.706 237.403C-62.3799 234.33 -66.2619 242.148 -66.2456 239.225C-63.6714 234.979 -59.0326 231.609 -58.2948 230.234C-54.2151 224.728 -57.4542 223.476 -53.4708 217.532C-54.4525 218.031 -56.273 218.005 -54.2277 213.084C-51.6536 208.838 -49.065 208.953 -50.1336 211.938C-50.6618 213.007 -51.1036 213.411 -51.2556 213.281C-51.8414 214.786 -52.6136 216.775 -51.0803 215.361L-51.2989 214.511C-49.5794 212.638 -46.3642 206.606 -46.2376 208.506C-44.9554 204.934 -46.3386 206.607 -47.9617 208.917C-44.1432 203.74 -43.1691 200.189 -39.5 194.702C-40.3059 195.46 -41.3901 195.958 -40.8897 195.041C-35.6191 186.962 -39.8797 190.773 -36.9747 184.916C-34.3955 182.107 -35.673 187.14 -33.2002 181.021C-30.7177 177.799 -31.3798 181.047 -31.711 182.684C-29.8836 176.863 -25.6773 173.255 -23.8662 170.358L-24.9352 173.369C-24.2941 171.583 -23.531 170.234 -22.7933 168.86L-24.731 169.858C-23.6577 168.335 -22.8943 166.961 -22.4881 167.249C-22.2792 165.2 -24.9543 167.547 -24.1043 163.712C-22.3849 161.839 -21.0817 156.806 -19.2612 156.832C-23.4585 163.388 -17.4151 156.858 -20.3461 162.74C-19.9186 161.541 -19.1555 160.193 -18.0822 158.669C-17.798 158.52 -17.9083 159.057 -18.0947 159.541C-13.2667 153.712 -18.0392 155.669 -14.3525 148.952C-14.012 150.239 -11.9826 148.216 -11.5551 147.017C-13.0559 149.74 -13.5895 147.604 -12.8564 144.767C-9.87568 140.784 -10.7595 139.822 -9.44514 137.584L-11.147 140.022C-11.4616 138.709 -10.1747 136.599 -8.79586 133.439C-8.02774 133.527 -9.86447 136.424 -9.00473 135.488C-8.79586 133.439 -7.38665 131.741 -5.84739 129.916C-5.06495 129.004 -4.25648 128.067 -3.54876 127C-3.39197 126.797 -3.12895 126.339 -2.89231 125.932L-2.18165 124.66C-1.73327 123.795 -1.31015 122.903 -0.989612 122.01C-0.597657 121.503 -0.284819 121.148 -0.0250977 120.921C-0.0807066 119.433 1.8155 121.332 0.753395 118.496C0.000359371 117.357 -0.601043 116.374 -1.10136 115.495C-1.35152 115.055 -1.57641 114.641 -1.77603 114.254C-1.90091 114.021 -2.00016 113.789 -2.12506 113.556C-2.52245 112.653 -2.76745 111.855 -2.98682 111.056C-3.4252 109.435 -3.88847 107.761 -5.74949 105.195C-6.01149 107.371 -5.60308 107.506 -8.68307 104.102L-3.24404 112.899L-7.83858 107.807C-6.44241 110.597 -4.17299 113.296 -3.50569 115.05C-5.83116 112.683 -5.39748 112.843 -5.62833 114.635C-5.92114 110.014 -10.4 107.591 -11.5346 102.65L-8.77267 101.408C-10.9261 94.196 -16.1291 90.4028 -19.7971 81.5025L-18.8654 84.4907C-20.5236 83.8771 -21.7145 79.2951 -23.5499 76.7298C-22.5213 76.5394 -23.0582 74.6339 -23.1142 73.1713C-23.7109 73.65 -26.2552 66.8688 -28.4372 67.017L-29.1945 62.5951C-32.2208 55.4478 -35.7937 56.0121 -38.8508 49.2235C-36.8461 50.714 -37.7474 47.3928 -34.7796 51.4617C-35.9018 49.2401 -36.7438 47.1507 -37.3892 47.4492C-37.4946 45.8577 -41.7467 41.9242 -41.9162 39.4341C-42.7777 38.7037 -43.8828 38.8674 -45.0775 36.337C-45.0211 35.9788 -44.6383 36.1125 -44.6383 36.1125C-45.0775 36.337 -47.2282 32.5106 -47.1129 35.205C-47.7894 26.9374 -57.0477 16.213 -57.6627 9.0234C-60.4422 4.34167 -63.6947 -1.347 -65.9915 -5.71406C-65.5831 -5.57997 -65.5266 -5.93821 -65.2058 -5.06166C-67.4464 -11.5565 -69.6851 -7.45962 -72.2722 -14.8314C-72.5958 -19.0932 -69.6262 -11.5621 -70.1804 -14.0577C-68.9836 -15.2459 -70.0326 -17.21 -71.5126 -19.5137C-71.8642 -20.0316 -71.9914 -20.1104 -72.2426 -20.473C-72.469 -20.784 -72.721 -21.0954 -72.9213 -21.4316C-73.322 -22.1042 -73.5937 -22.8262 -73.3579 -23.1818C-73.204 -23.1796 -73.0758 -23.1778 -72.9472 -23.2016L-73.0516 -23.0748L-72.7487 -22.7371C-72.7487 -22.7371 -72.6699 -22.8642 -72.6688 -22.9411C-71.5377 -23.1301 -71.2996 -23.6396 -70.4663 -24.5252C-70.3337 -24.8311 -68.9091 -25.8108 -67.7442 -26.5635C-66.5278 -27.3411 -65.2603 -28.0923 -63.8662 -28.7391C-63.8662 -28.7391 -64.0259 -28.3311 -63.6677 -28.2746C-60.4625 -31.8191 -53.2199 -36.1263 -47.8646 -39.3835C-48.9965 -37.3481 -50.0976 -37.4664 -48.4141 -36.8268C-46.0082 -38.2798 -50.1107 -38.3386 -45.2993 -41.2189C-43.3477 -41.3961 -39.4825 -42.6742 -38.343 -41.6577L-43.0203 -39.1858C-39.7691 -38.7802 -36.9481 -42.3558 -34.3441 -43.3187L-34.3054 -42.4461C-27.2225 -46.3454 -28.0166 -48.2032 -20.2169 -52.0152L-21.292 -52.1589C-17.953 -56.0861 -17.2283 -52.9726 -13.6652 -56.4349L-11.4763 -55.2752C-8.91068 -57.1362 -2.58347 -61.9951 2.27956 -64.9003C0.110977 -62.1103 -5.4041 -58.4451 -8.6221 -55.7984C-5.83235 -57.1946 0.732146 -60.7166 1.73001 -62.3436C0.693363 -61.5891 -0.477004 -60.4518 -1.71215 -60.1618C0.974386 -63.3033 5.09496 -66.2961 10.6228 -69.0635C10.8861 -67.7518 12.5564 -67.9843 14.9029 -68.8739C15.3154 -69.0219 15.7539 -69.1951 16.1923 -69.3684C16.5278 -69.5174 16.889 -69.6661 17.2502 -69.8148C17.9729 -70.1379 18.7212 -70.4605 19.3919 -70.733C20.0856 -69.0305 20.5742 -67.3308 19.8683 -66.3921C19.9196 -66.3913 20.1705 -66.003 20.3463 -65.7441L20.8982 -64.8898L21.9758 -63.1305C22.6768 -61.9407 23.3265 -60.7517 23.9499 -59.5118C25.2226 -57.0572 26.3661 -54.5275 27.5088 -51.9466C29.7938 -46.759 32.0752 -41.3151 35.0716 -35.6557C35.7392 -41.083 36.8454 -32.3733 39.2864 -34.4925C40.8141 -31.9317 41.2866 -30.8991 41.2305 -30.5665L43.6421 -21.6842C43.7885 -19.374 41.7503 -23.8912 41.2294 -23.3344C43.9657 -17.4223 41.2886 -20.3074 42.5104 -16.084C43.1188 -17.3832 44.9795 -14.7919 46.2628 -11.2857L45.1851 -16.6098C46.5948 -14.7688 47.3695 -13.3472 47.839 -12.1094C48.0862 -11.4648 48.1822 -11.0018 48.3774 -10.3065C48.6466 -9.40506 48.9165 -8.55489 49.1611 -7.73072C49.6746 -5.97945 50.2635 -4.12452 51.2564 -1.82781C52.2493 0.468894 53.7227 3.2341 55.7563 6.28945C54.8479 5.2506 53.9154 4.10882 52.9074 2.86338C54.6607 5.78647 57.3556 11.0055 60.2531 16.407C64.8157 7.62467 69.8575 -2.38183 70.8262 -7.34322C71.7108 -8.22813 73.3962 -9.51191 71.7829 -6.0985C72.3884 -7.19259 73.02 -8.31195 73.6519 -9.45695C74.0208 -10.1441 74.364 -10.8316 74.7329 -11.5188C75.393 -12.8429 76.0535 -14.1926 76.6627 -15.5431C77.9332 -18.2946 79.1274 -21.0986 80.3209 -23.8512C82.7076 -29.3308 85.0891 -34.4515 87.8574 -37.9252L88.1236 -36.8187C88.9464 -38.7559 88.6154 -40.7098 90.5411 -42.6569C90.7425 -42.3975 90.8073 -41.5503 91.3066 -42.3894C91.6044 -43.4879 92.7966 -47.9332 94.5212 -50.1653L94.1518 -47.6573C97.2179 -52.2296 98.7877 -56.1822 100.074 -60.0363C100.691 -61.9508 101.308 -63.8141 101.925 -65.7544C102.068 -66.7269 102.393 -67.9788 102.95 -69.2531C103.273 -68.5048 103.705 -68.2165 104.06 -67.9806C104.437 -67.4366 105.016 -66.6333 105.568 -65.8047C105.795 -65.5194 105.767 -65.4172 106.097 -65.1304C106.91 -64.5801 107.672 -64.0819 108.307 -63.6625L108.022 -63.4614C119.112 -57.0962 127.977 -54.7123 138.781 -49.813C144.059 -44.1465 160.139 -36.9917 169.838 -30.1335C168.445 -31.3588 170.935 -31.5283 172.898 -30.7307C175.104 -29.0065 180.379 -28.4436 178.997 -26.8221L178.158 -27.3214C179.016 -24.5394 184.266 -22.2842 188.159 -20.0998L190.111 -22.1235C190.389 -21.8374 190.667 -21.5513 190.945 -21.2652L191.375 -20.8487C191.375 -20.8487 191.475 -20.6678 191.525 -20.5901C191.7 -20.2799 191.876 -20.0209 192.027 -19.8136C192.354 -19.3729 192.657 -19.0608 193.064 -18.7729C192.618 -18.0868 192.378 -17.4491 192.084 -16.6327C191 -14.3401 189.941 -12.0728 188.937 -9.98425C186.824 -5.68042 184.798 -2.11906 182.521 -0.689899C181.763 2.09462 180.103 5.14832 179.371 7.90757L178.178 7.0698C174.133 13.7054 172.111 17.036 167.807 25.6425L167.839 23.4374C165.155 28.1434 168.237 31.4446 165.917 35.8737L163.297 36.1439C158.792 44.4655 152.53 51.9412 149.783 61.083C149.582 60.798 149.154 60.2533 149.815 58.8779C147.63 62.7704 140.273 73.2823 143.658 73.3051C141.9 72.4849 138.818 81.7758 137.106 86.6752L136.228 85.3034C135.777 89.9645 136.156 90.329 133.692 95.8588C132.855 97.0265 132.094 96.4001 133.321 94.9302C130.394 98.7351 132.726 98.8198 129.299 103.515L129.538 101.185C127.092 105.433 127.709 105.313 127.36 108.181C126.394 111.167 122.604 116.139 121.116 116.169C121.19 116.376 121.238 116.658 121.258 117.043C121.2 117.53 121.089 118.092 120.927 118.68C120.602 119.881 120.121 121.233 119.357 122.658C119.581 123.097 119.78 123.562 119.978 124.052C119.714 124.587 118.731 123.342 118.203 122.642C118.748 123.957 119.319 125.248 119.892 126.436C120.191 127.03 120.491 127.598 120.765 128.167C120.99 128.554 121.19 128.942 121.415 129.33C122.216 130.726 123.045 131.918 123.824 133.057C125.381 135.311 126.738 137.305 127.39 140.136C127.026 140.464 126.968 140.899 127.064 141.362C124.147 135.55 121.829 130.849 122.157 131.238C120.994 131.837 123.157 136.613 119.634 133.715C122.433 137.013 127.613 142.447 129.39 147.294C129.386 147.576 129.382 147.832 129.301 148.113L128.922 147.697C129.343 148.806 129.92 149.686 130.575 150.491C131.117 152.037 131.462 153.042 132.134 154.437C131.427 155.478 134.336 160.059 135.482 162.435C136.674 161.58 138.013 164.754 137.626 161.337C137.723 161.749 137.247 160.973 136.396 159.448C136.17 159.111 135.945 158.723 135.769 158.515C135.82 158.542 135.896 158.569 135.972 158.621C135.174 157.096 134.125 155.132 132.926 152.858C134.52 154.369 136.035 156.006 136.634 158.964C138.059 159.728 139.585 160.622 140.372 161.172C140.211 165.273 142.373 171.92 141.711 173.347C146.051 180.103 150.732 189.889 155.43 193.137C156.762 195.002 155.93 195.811 155.942 196.76C155.111 195.722 154.439 194.302 153.753 193.857C156.443 197.588 160.097 205.719 162.275 205.827C164.12 211.316 159.253 203.758 163.104 210.609L162.114 209.928C166.435 225.095 177.827 230.157 182.172 247.222C181.856 246.064 181.685 245.471 181.844 245.115C183.553 249.345 185.545 253.503 187.64 257.636L189.237 260.736L190.66 263.398L192.911 267.38L188.335 269.93C186.113 271.129 183.632 272.402 181.282 273.548C176.504 275.89 171.678 278.026 166.729 279.725C161.597 281.729 161.604 283.062 159.031 285.411L157.274 284.565L152.982 288.76C146.347 293.615 138.731 291.762 130.683 298.622L132.345 298.954C128.964 300.444 122.208 304.809 122.202 303.45C121.941 303.78 121.616 304.955 120.075 305.138L119.597 304.464L112.134 309.82C105.608 312.496 111.644 306.453 102.449 310.963C99.1894 312.968 93.8343 317.995 95.3753 317.837C96.7698 317.165 99.113 316.506 99.5906 317.18L96.6646 319.138C97.1941 321.557 95.9145 324.949 104.284 322.556L108.932 318.545L111.161 318.705L106.716 321.052C109.747 320.736 110.925 319.061 112.434 317.543C113.147 317.887 114.07 317.875 115.229 317.558L119.425 312.874C120.469 313.376 117.923 315.724 121.66 314.393C123.615 312.216 118.361 313.73 122.093 311.04C125.124 310.698 124.799 311.873 127.346 309.525C128.034 309.868 127.589 310.529 126.525 311.385C128.836 309.367 133.427 307.535 134.223 305.7C137.482 305.541 143.038 300.825 143.802 302.965C144.38 302.05 147.681 298.994 150.085 297.669C146.863 302.342 159.305 293.159 159.439 296.341C161.622 292.5 170.875 289.299 176.09 285.117C175.854 285.447 175.383 286.132 174.817 286.278C178.197 284.788 179.477 284.96 181.821 284.275C181.337 282.268 186.253 279.261 188.443 276.728C193.346 276.413 187.062 280.068 189.175 281.098C188.698 280.425 190.28 279.165 191.707 278.031C191.941 277.804 192.692 277.327 193.21 276.95C193.754 276.573 194.221 276.221 194.558 275.944C195.207 275.363 195.315 275.031 194.571 275.046C197.429 274.267 198.744 273.772 199.722 273.479C200.752 273.186 201.472 273.119 203.912 272.821C203.203 272.169 203.518 271.661 204.372 271.135C203.294 269.401 202.512 266.748 200.062 264.097C198.909 260.465 199.126 259.621 199.137 258.878C199.139 258.698 199.142 258.493 199.043 258.261C199.02 258.107 198.971 257.927 198.872 257.694C198.647 257.23 198.221 256.557 197.442 255.417C196.942 252.743 199.963 256.684 199.963 256.684L200.12 256.481ZM136.854 141.836C137.404 142.818 137.854 143.671 138.154 144.214C137.879 143.722 137.503 143.05 136.828 141.861L136.854 141.836ZM131.839 132.07C132.386 133.283 133.134 134.781 133.958 136.357C133.693 136.918 133.054 136.78 132.555 135.799C133.114 136.191 132.2 133.742 131.839 132.095L131.839 132.07ZM133.503 157.329C132.524 155.879 132.508 155.212 132.666 154.881C133.066 155.604 133.542 156.432 134.193 157.518C134.27 157.519 134.371 157.598 134.448 157.625C134.115 157.62 133.808 157.538 133.503 157.329Z" fill="#3B2335"/>
<path d="M136.605 159.246C136.755 159.453 136.857 159.557 137.032 159.842C136.986 159.457 136.914 159.122 136.842 158.762C136.613 158.656 136.358 158.524 136.155 158.419C136.305 158.703 136.454 158.987 136.605 159.246Z" fill="#3B2335"/>
<path d="M195.13 3.49174L194.799 3.33311L194.605 4.33053L195.13 3.49174Z" fill="#3B2335"/>
<path d="M25.3703 306.55C25.5249 306.501 25.7575 306.376 26.0703 306.021C25.9678 306.02 25.6824 306.247 25.3703 306.55Z" fill="#3B2335"/>
<path d="M38.1868 283.755L40.4097 280.761C39.3913 282.028 38.7107 282.993 38.1868 283.755Z" fill="#3B2335"/>
<path d="M48.4366 266.437C48.3388 266.102 48.2128 265.946 48.0868 265.791L48.0865 265.816L48.4366 266.437Z" fill="#3B2335"/>
<path d="M81.2738 299.709L81.6715 300.587C81.6715 300.587 81.8517 300.538 81.9279 300.591L81.2738 299.709Z" fill="#3B2335"/>
<path d="M81.9278 300.59L82.5564 301.471C82.3318 301.032 82.1322 300.645 81.9278 300.59Z" fill="#3B2335"/>
<path d="M83.9145 303.336L82.5563 301.47C82.9054 302.168 83.3031 303.045 83.9145 303.336Z" fill="#3B2335"/>
<path d="M69.7954 275.668L69.18 275.659C69.3584 275.739 69.5635 275.742 69.7954 275.668Z" fill="#3B2335"/>
<path d="M65.9741 268.536C66.7436 270.316 67.1874 273.349 68.6939 275.602L69.181 275.609C67.9093 274.872 67.5978 269.764 65.9741 268.536Z" fill="#3B2335"/>
<path d="M53.1609 244.603L57.2047 238.019L57.3541 238.329L57.2076 237.814C56.6168 237.882 55.819 238.076 57.247 235.07C57.3473 235.226 57.4722 235.458 57.6224 235.717C57.4741 235.33 57.351 234.969 57.2521 234.711C54.6395 238.059 54.9718 238.141 55.3256 238.505C55.6527 238.946 55.8182 239.922 53.1349 244.628L53.1609 244.603Z" fill="#3B2335"/>
<path d="M41.0704 265.075C42.5797 261.762 40.3316 264.731 40.1569 264.395C39.4832 266.668 39.3469 267.23 41.0704 265.075Z" fill="#3B2335"/>
</g>
</g>
<defs>
<filter id="filter0_d_335_1313" x="-99.8931" y="-84.3135" width="326.725" height="1170.76" filterUnits="userSpaceOnUse" color-interpolation-filters="sRGB">
<feFlood flood-opacity="0" result="BackgroundImageFix"/>
<feColorMatrix in="SourceAlpha" type="matrix" values="0 0 0 0 0 0 0 0 0 0 0 0 0 0 0 0 0 0 127 0" result="hardAlpha"/>
<feOffset dx="13" dy="29"/>
<feGaussianBlur stdDeviation="2"/>
<feComposite in2="hardAlpha" operator="out"/>
<feColorMatrix type="matrix" values="0 0 0 0 0 0 0 0 0 0 0 0 0 0 0 0 0 0 0.25 0"/>
<feBlend mode="normal" in2="BackgroundImageFix" result="effect1_dropShadow_335_1313"/>
<feBlend mode="normal" in="SourceGraphic" in2="effect1_dropShadow_335_1313" result="shape"/>
</filter>
<clipPath id="clip0_335_1313">
<rect width="1137.86" height="297.434" fill="white" transform="translate(210.713 -81.7363) rotate(90.8213)"/>
</clipPath>
</defs>
</svg>
